G04*
G04 #@! TF.GenerationSoftware,Altium Limited,Altium Designer,21.5.1 (32)*
G04*
G04 Layer_Color=32768*
%FSAX24Y24*%
%MOIN*%
G70*
G04*
G04 #@! TF.SameCoordinates,E50B5674-5FFA-4352-8543-23BF37AEB5C9*
G04*
G04*
G04 #@! TF.FilePolarity,Positive*
G04*
G01*
G75*
%ADD11C,0.0100*%
%ADD113C,0.0039*%
D11*
X027085Y020762D02*
Y037581D01*
X009926Y029172D02*
X040311D01*
D113*
X029953Y016650D02*
X030347D01*
X030150Y016453D02*
Y016847D01*
X029363Y015705D02*
Y017595D01*
X030937Y015705D02*
Y017595D01*
X029363Y015705D02*
X030937D01*
X029363Y017595D02*
X030937D01*
X029953Y018350D02*
X030347D01*
X030150Y018153D02*
Y018547D01*
X030937Y017405D02*
Y019295D01*
X029363Y017405D02*
Y019295D01*
X030937D01*
X029363Y017405D02*
X030937D01*
X034600Y039753D02*
Y040147D01*
X034403Y039950D02*
X034797D01*
X037803Y039850D02*
X038197D01*
X038000Y039653D02*
Y040047D01*
X020103Y038400D02*
X020497D01*
X020300Y038203D02*
Y038597D01*
X014050Y038253D02*
Y038647D01*
X013853Y038450D02*
X014247D01*
X012103Y040550D02*
X012497D01*
X012300Y040353D02*
Y040747D01*
X011513Y039605D02*
Y041495D01*
X013087Y039605D02*
Y041495D01*
X011513D02*
X013087D01*
X011513Y039605D02*
X013087D01*
X019513Y039305D02*
X021087D01*
X019513Y041195D02*
X021087D01*
Y039305D02*
Y041195D01*
X019513Y039305D02*
Y041195D01*
X020300Y040053D02*
Y040447D01*
X020103Y040250D02*
X020497D01*
X042153Y016300D02*
X042547D01*
X042350Y016103D02*
Y016497D01*
X043708Y014725D02*
Y017875D01*
X040992Y014725D02*
Y017875D01*
Y014725D02*
X043708D01*
X040992Y017875D02*
X043708D01*
X035561Y016932D02*
X036939D01*
X035561Y018468D02*
X036939D01*
Y016932D02*
Y018468D01*
X035561Y016932D02*
Y018468D01*
X036250Y017503D02*
Y017897D01*
X036053Y017700D02*
X036447D01*
X031903Y017600D02*
X032297D01*
X032100Y017403D02*
Y017797D01*
X031411Y016832D02*
Y018368D01*
X032789Y016832D02*
Y018368D01*
X031411D02*
X032789D01*
X031411Y016832D02*
X032789D01*
X041961Y033966D02*
X042552D01*
X041961Y032666D02*
X042552D01*
X041961D02*
Y033966D01*
X042552Y032666D02*
Y033966D01*
X042257Y033119D02*
Y033513D01*
X042060Y033316D02*
X042454D01*
X021900Y039553D02*
Y039947D01*
X021703Y039750D02*
X022097D01*
X021250Y039455D02*
X022550D01*
X021250Y040045D02*
X022550D01*
X021250Y039455D02*
Y040045D01*
X022550Y039455D02*
Y040045D01*
X016503Y038550D02*
X016897D01*
X016700Y038353D02*
Y038747D01*
X016405Y037900D02*
Y039200D01*
X016995Y037900D02*
Y039200D01*
X016405D02*
X016995D01*
X016405Y037900D02*
X016995D01*
X014800Y039505D02*
Y040095D01*
X013500Y039505D02*
Y040095D01*
X014800D01*
X013500Y039505D02*
X014800D01*
X013953Y039800D02*
X014347D01*
X014150Y039603D02*
Y039997D01*
X010150Y039255D02*
Y039845D01*
X011450Y039255D02*
Y039845D01*
X010150Y039255D02*
X011450D01*
X010150Y039845D02*
X011450D01*
X010603Y039550D02*
X010997D01*
X010800Y039353D02*
Y039747D01*
X010905Y038900D02*
X011495D01*
X010905Y037600D02*
X011495D01*
X010905D02*
Y038900D01*
X011495Y037600D02*
Y038900D01*
X011200Y038053D02*
Y038447D01*
X011003Y038250D02*
X011397D01*
X010105Y037600D02*
X010695D01*
X010105Y038900D02*
X010695D01*
Y037600D02*
Y038900D01*
X010105Y037600D02*
Y038900D01*
X010400Y038053D02*
Y038447D01*
X010203Y038250D02*
X010597D01*
X031053Y013150D02*
X031447D01*
X031250Y012953D02*
Y013347D01*
X030955Y012500D02*
Y013800D01*
X031545Y012500D02*
Y013800D01*
X030955D02*
X031545D01*
X030955Y012500D02*
X031545D01*
X029903Y013150D02*
X030297D01*
X030100Y012953D02*
Y013347D01*
X029805Y012500D02*
Y013800D01*
X030395Y012500D02*
Y013800D01*
X029805D02*
X030395D01*
X029805Y012500D02*
X030395D01*
X030005Y014000D02*
X030595D01*
X030005Y015300D02*
X030595D01*
Y014000D02*
Y015300D01*
X030005Y014000D02*
Y015300D01*
X030300Y014453D02*
Y014847D01*
X030103Y014650D02*
X030497D01*
X030984Y018817D02*
Y019408D01*
X032284Y018817D02*
Y019408D01*
X030984Y018817D02*
X032284D01*
X030984Y019408D02*
X032284D01*
X031437Y019112D02*
X031831D01*
X031634Y018916D02*
Y019309D01*
X032284Y019755D02*
Y020345D01*
X030984Y019755D02*
Y020345D01*
X032284D01*
X030984Y019755D02*
X032284D01*
X031437Y020050D02*
X031831D01*
X031634Y019853D02*
Y020247D01*
X034250Y017403D02*
Y017797D01*
X034053Y017600D02*
X034447D01*
X033600Y017895D02*
X034900D01*
X033600Y017305D02*
X034900D01*
Y017895D01*
X033600Y017305D02*
Y017895D01*
X034300Y016603D02*
Y016997D01*
X034103Y016800D02*
X034497D01*
X033650Y016505D02*
X034950D01*
X033650Y017095D02*
X034950D01*
X033650Y016505D02*
Y017095D01*
X034950Y016505D02*
Y017095D01*
X036200Y020103D02*
Y020497D01*
X036003Y020300D02*
X036397D01*
X035550Y020595D02*
X036850D01*
X035550Y020005D02*
X036850D01*
Y020595D01*
X035550Y020005D02*
Y020595D01*
X035530Y018985D02*
X036770D01*
X036150Y019103D02*
Y019497D01*
X035953Y019300D02*
X036347D01*
X035530Y019615D02*
X036770D01*
Y018985D02*
Y019615D01*
X035530Y018985D02*
Y019615D01*
X044550Y018105D02*
Y018695D01*
X043250Y018105D02*
Y018695D01*
X044550D01*
X043250Y018105D02*
X044550D01*
X043703Y018400D02*
X044097D01*
X043900Y018203D02*
Y018597D01*
X041335Y019350D02*
X041965D01*
X041335Y020590D02*
X041965D01*
X041335Y019350D02*
Y020590D01*
X041650Y019773D02*
Y020167D01*
X041453Y019970D02*
X041847D01*
X041965Y019350D02*
Y020590D01*
X042235Y019330D02*
X042865D01*
X042235Y020570D02*
X042865D01*
X042235Y019330D02*
Y020570D01*
X042550Y019753D02*
Y020147D01*
X042353Y019950D02*
X042747D01*
X042865Y019330D02*
Y020570D01*
X044000Y023203D02*
Y023597D01*
X043803Y023400D02*
X044197D01*
X043350Y023695D02*
X044650D01*
X043350Y023105D02*
X044650D01*
X043350D02*
Y023695D01*
X044650Y023105D02*
Y023695D01*
X044000Y024053D02*
Y024447D01*
X043803Y024250D02*
X044197D01*
X043311Y024624D02*
X044689D01*
X043311Y023876D02*
X044689D01*
X043311D02*
Y024624D01*
X044689Y023876D02*
Y024624D01*
X043085Y019330D02*
X043715D01*
X043085Y020570D02*
X043715D01*
X043085Y019330D02*
Y020570D01*
X043400Y019753D02*
Y020147D01*
X043203Y019950D02*
X043597D01*
X043715Y019330D02*
Y020570D01*
X043935Y019330D02*
X044565D01*
X043935Y020570D02*
X044565D01*
X043935Y019330D02*
Y020570D01*
X044250Y019753D02*
Y020147D01*
X044053Y019950D02*
X044447D01*
X044565Y019330D02*
Y020570D01*
X044070Y022235D02*
Y022865D01*
X042830Y022235D02*
Y022865D01*
Y022235D02*
X044070D01*
X043253Y022550D02*
X043647D01*
X043450Y022353D02*
Y022747D01*
X042830Y022865D02*
X044070D01*
X042800Y022955D02*
Y023545D01*
X044100Y022955D02*
Y023545D01*
X042800Y022955D02*
X044100D01*
X042800Y023545D02*
X044100D01*
X043253Y023250D02*
X043647D01*
X043450Y023053D02*
Y023447D01*
X036800Y041355D02*
Y041945D01*
X035500Y041355D02*
Y041945D01*
Y041355D02*
X036800D01*
X035500Y041945D02*
X036800D01*
X035953Y041650D02*
X036347D01*
X036150Y041453D02*
Y041847D01*
X020500Y038155D02*
Y038745D01*
X021800Y038155D02*
Y038745D01*
X020500D02*
X021800D01*
X020500Y038155D02*
X021800D01*
X020953Y038450D02*
X021347D01*
X021150Y038253D02*
Y038647D01*
X014450Y038353D02*
Y038747D01*
X014253Y038550D02*
X014647D01*
X013800Y038255D02*
X015100D01*
X013800Y038845D02*
X015100D01*
Y038255D02*
Y038845D01*
X013800Y038255D02*
Y038845D01*
X040360Y014955D02*
Y015545D01*
X041660Y014955D02*
Y015545D01*
X040360D02*
X041660D01*
X040360Y014955D02*
X041660D01*
X040813Y015250D02*
X041207D01*
X041010Y015053D02*
Y015447D01*
X044000Y025903D02*
Y026297D01*
X043803Y026100D02*
X044197D01*
X043350Y026395D02*
X044650D01*
X043350Y025805D02*
X044650D01*
X043350D02*
Y026395D01*
X044650Y025805D02*
Y026395D01*
X044589Y018026D02*
Y018774D01*
X043211Y018026D02*
Y018774D01*
Y018026D02*
X044589D01*
X043211Y018774D02*
X044589D01*
X043703Y018400D02*
X044097D01*
X043900Y018203D02*
Y018597D01*
X030876Y012461D02*
X031624D01*
X030876Y013839D02*
X031624D01*
X030876Y012461D02*
Y013839D01*
X031624Y012461D02*
Y013839D01*
X031250Y012953D02*
Y013347D01*
X031053Y013150D02*
X031447D01*
X029903Y013150D02*
X030297D01*
X030100Y012953D02*
Y013347D01*
X030474Y012461D02*
Y013839D01*
X029726Y012461D02*
Y013839D01*
X030474D01*
X029726Y012461D02*
X030474D01*
X044689Y024876D02*
Y025624D01*
X043311Y024876D02*
Y025624D01*
Y024876D02*
X044689D01*
X043311Y025624D02*
X044689D01*
X043803Y025250D02*
X044197D01*
X044000Y025053D02*
Y025447D01*
X034600Y040353D02*
Y040747D01*
X034403Y040550D02*
X034797D01*
X033950Y040255D02*
X035250D01*
X033950Y040845D02*
X035250D01*
X033950Y040255D02*
Y040845D01*
X035250Y040255D02*
Y040845D01*
X036100Y040403D02*
Y040797D01*
X035903Y040600D02*
X036297D01*
X035450Y040305D02*
X036750D01*
X035450Y040895D02*
X036750D01*
X035450Y040305D02*
Y040895D01*
X036750Y040305D02*
Y040895D01*
X035853Y039850D02*
X036247D01*
X036050Y039653D02*
Y040047D01*
X035676Y039161D02*
Y040539D01*
X036424Y039161D02*
Y040539D01*
X035676Y039161D02*
X036424D01*
X035676Y040539D02*
X036424D01*
X038000Y040253D02*
Y040647D01*
X037803Y040450D02*
X038197D01*
X037350Y040155D02*
X038650D01*
X037350Y040745D02*
X038650D01*
X037350Y040155D02*
Y040745D01*
X038650Y040155D02*
Y040745D01*
X039750Y040553D02*
Y040947D01*
X039553Y040750D02*
X039947D01*
X039100Y040455D02*
X040400D01*
X039100Y041045D02*
X040400D01*
X039100Y040455D02*
Y041045D01*
X040400Y040455D02*
Y041045D01*
X039276Y040489D02*
X040024D01*
X039276Y039111D02*
X040024D01*
Y040489D01*
X039276Y039111D02*
Y040489D01*
X039650Y039603D02*
Y039997D01*
X039453Y039800D02*
X039847D01*
X039100Y041305D02*
Y041895D01*
X040400Y041305D02*
Y041895D01*
X039100D02*
X040400D01*
X039100Y041305D02*
X040400D01*
X039553Y041600D02*
X039947D01*
X039750Y041403D02*
Y041797D01*
X038130Y017435D02*
Y018065D01*
X039370Y017435D02*
Y018065D01*
X038130Y017435D02*
X039370D01*
X038553Y017750D02*
X038947D01*
X038750Y017553D02*
Y017947D01*
X038130Y018065D02*
X039370D01*
X042420Y018085D02*
Y018715D01*
X041180Y018085D02*
Y018715D01*
X042420D01*
X041603Y018400D02*
X041997D01*
X041800Y018203D02*
Y018597D01*
X041180Y018085D02*
X042420D01*
X029400Y014105D02*
Y014695D01*
X028100Y014105D02*
Y014695D01*
Y014105D02*
X029400D01*
X028100Y014695D02*
X029400D01*
X028553Y014400D02*
X028947D01*
X028750Y014203D02*
Y014597D01*
X024335Y017280D02*
X024965D01*
X024335Y018520D02*
X024965D01*
Y017280D02*
Y018520D01*
X024650Y017703D02*
Y018097D01*
X024453Y017900D02*
X024847D01*
X024335Y017280D02*
Y018520D01*
X022611Y037750D02*
X023202D01*
X022611Y039050D02*
X023202D01*
Y037750D02*
Y039050D01*
X022611Y037750D02*
Y039050D01*
X022907Y038203D02*
Y038597D01*
X022710Y038400D02*
X023103D01*
X017650Y039505D02*
Y040095D01*
X018950Y039505D02*
Y040095D01*
X017650Y039505D02*
X018950D01*
X017650Y040095D02*
X018950D01*
X018103Y039800D02*
X018497D01*
X018300Y039603D02*
Y039997D01*
X023455Y037750D02*
X024045D01*
X023455Y039050D02*
X024045D01*
Y037750D02*
Y039050D01*
X023455Y037750D02*
Y039050D01*
X023750Y038203D02*
Y038597D01*
X023553Y038400D02*
X023947D01*
X017505Y037900D02*
X018095D01*
X017505Y039200D02*
X018095D01*
Y037900D02*
Y039200D01*
X017505Y037900D02*
Y039200D01*
X017800Y038353D02*
Y038747D01*
X017603Y038550D02*
X017997D01*
X013539Y038176D02*
Y038924D01*
X012161Y038176D02*
Y038924D01*
Y038176D02*
X013539D01*
X012161Y038924D02*
X013539D01*
X012653Y038550D02*
X013047D01*
X012850Y038353D02*
Y038747D01*
X041180Y018715D02*
X042420D01*
X041800Y018203D02*
Y018597D01*
X041603Y018400D02*
X041997D01*
X041180Y018085D02*
X042420D01*
X041180D02*
Y018715D01*
X042420Y018085D02*
Y018715D01*
X038230Y019635D02*
X039470D01*
X038850Y019753D02*
Y020147D01*
X038653Y019950D02*
X039047D01*
X038230Y020265D02*
X039470D01*
Y019635D02*
Y020265D01*
X038230Y019635D02*
Y020265D01*
X019246Y038203D02*
Y038597D01*
X019049Y038400D02*
X019443D01*
X018557Y038774D02*
X019935D01*
X018557Y038026D02*
X019935D01*
X018557D02*
Y038774D01*
X019935Y038026D02*
Y038774D01*
M02*
