M48
;Layer_Color=9474304
;FILE_FORMAT=2:4
INCH,LZ
;TYPE=PLATED
T2F00S00C0.0200
T3F00S00C0.0276
T4F00S00C0.0315
T5F00S00C0.0354
T6F00S00C0.0394
T7F00S00C0.0433
T8F00S00C0.0472
T9F00S00C0.0512
T10F00S00C0.1575
%
T02
X01415Y01335
X019581Y013869
X019Y01445
X01995Y01303
X0217Y01335
X02345Y01425
X0249Y013
X02755Y01425
X0289Y01301
X0297Y0128
X0306Y0143
X02949Y01508
X03165Y0128
X0325Y0135
X04115Y01365
X04145Y0178
X04255Y0184
X04425
X0445Y0174
X0409Y01965
X03885Y01855
X0378Y01985
X03545Y0204
X03409Y0194
X03355Y0189
X0341Y01835
X03605Y0186
X037225Y016913
X0325Y01665
X03205Y0162
X031414Y017154
X0313Y0206
X032
X03125Y02215
X0349Y02725
X0438Y0233
X02925Y0212
X0277Y0206
X02915Y0187
X030594Y019538
X031034Y01762
X0235Y01755
X0234Y02485
X0218Y0248
X0237Y02675
X02415Y02877
X0227Y0307
X01465Y02725
X01425Y0253
X0151Y02145
X01503Y018899
X0139Y03405
X01503Y03635
X0131Y0378
X0166Y03635
X0167Y03365
X0157Y03405
X01715Y03165
X01835Y0326
X0219Y03345
X02325Y03405
X02435Y03305
X0249Y03485
X0229Y03635
X02285Y03965
X0249
X02915Y0429
X01835Y0378
X036055Y0383
X0359Y03895
X03495Y03975
X03764Y03984
X0401Y04165
X03651Y0431
X0439Y04035
X04225Y03245
X0341Y03455
X03135Y0319
T03
X0334Y02215
X0344
X0354
T04
X00995Y04085
X01095
X018
X019
T05
X04245Y02125
Y02225
Y02325
Y02425
Y02525
Y02625
T06
X039524Y027672
Y028672
Y029672
Y030672
X010713
Y029672
Y028672
Y027672
Y026672
Y025672
Y024672
Y023672
Y022672
Y031672
Y032672
Y033672
Y034672
Y035672
T07
X01395Y04085
X01695
X022
X025
T08
X033222Y0144
X0346
X038022
X0394
X01504Y043887
X016418
X01825Y0439
X019628
X034572
X03595
X03775
X039128
T09
X023016Y0451
X024
X024984
X025969
X02815
X029134
X030119
X031103
T10
X01035Y0134
X043815
X03913Y021943
X01265
Y0364
X0105Y04475
X04365Y0449
X03913Y0364
M30
