G04*
G04 #@! TF.GenerationSoftware,Altium Limited,Altium Designer,21.5.1 (32)*
G04*
G04 Layer_Physical_Order=1*
G04 Layer_Color=255*
%FSAX24Y24*%
%MOIN*%
G70*
G04*
G04 #@! TF.SameCoordinates,E50B5674-5FFA-4352-8543-23BF37AEB5C9*
G04*
G04*
G04 #@! TF.FilePolarity,Positive*
G04*
G01*
G75*
%ADD11C,0.0100*%
%ADD37R,0.0236X0.0571*%
%ADD38R,0.0669X0.0866*%
%ADD39R,0.0492X0.0512*%
%ADD40R,0.0472X0.0551*%
%ADD41R,0.0787X0.0984*%
%ADD42R,0.0551X0.0472*%
%ADD43R,0.0807X0.0155*%
%ADD44R,0.0965X0.0354*%
%ADD45R,0.0524X0.0524*%
%ADD46R,0.0177X0.0591*%
%ADD47R,0.0492X0.0551*%
%ADD48R,0.0551X0.0492*%
%ADD73C,0.0200*%
%ADD74C,0.0250*%
%ADD75C,0.0500*%
%ADD76C,0.0300*%
%ADD77C,0.1000*%
%ADD78C,0.0120*%
%ADD79C,0.0400*%
%ADD80C,0.1575*%
%ADD81C,0.0709*%
%ADD82C,0.0591*%
%ADD83C,0.0787*%
%ADD84R,0.0591X0.0591*%
%ADD85C,0.0866*%
%ADD86C,0.0551*%
%ADD87O,0.0700X0.0950*%
%ADD88O,0.0827X0.0433*%
%ADD89O,0.0630X0.0433*%
%ADD90C,0.1969*%
%ADD91C,0.0360*%
G36*
X020950Y012300D02*
Y012750D01*
X021400Y012300D01*
X020950D01*
Y012850D01*
X020467Y012367D01*
X020600Y012300D01*
X020950D01*
D02*
G37*
G36*
X022650D02*
Y012750D01*
X023100Y012300D01*
X022650D01*
Y012850D01*
X022167Y012367D01*
X022300Y012300D01*
X022650D01*
D02*
G37*
G36*
X009750Y024650D02*
Y024950D01*
X009900D01*
X010200Y024650D01*
X009750D01*
Y024300D01*
X009850D01*
X010200Y024650D01*
X009750D01*
D02*
G37*
G36*
X009450Y035700D02*
X010150Y035000D01*
X010700D01*
Y034350D01*
X010050D01*
X009450Y033750D01*
Y035700D01*
D02*
G37*
G36*
X024050Y015950D02*
X023600D01*
X024050Y016400D01*
Y015950D01*
X023500D01*
X023983Y015467D01*
X024050Y015600D01*
Y015950D01*
D02*
G37*
G36*
X035450Y012200D02*
Y012650D01*
X035900Y012200D01*
X035450D01*
Y012750D01*
X034967Y012267D01*
X035100Y012200D01*
X035450D01*
D02*
G37*
G36*
X026050Y036300D02*
Y036750D01*
X026500Y036300D01*
X026050D01*
X026050Y036900D01*
X025533Y036383D01*
X025700Y036300D01*
X026050D01*
D02*
G37*
G36*
X042200Y035050D02*
Y034600D01*
X041750Y035050D01*
X042200D01*
Y034500D01*
X042683Y034983D01*
X042550Y035050D01*
X042200D01*
D02*
G37*
G36*
X032833Y046033D02*
X032350Y045550D01*
Y045650D01*
X031900Y046100D01*
X032700D01*
X032833Y046033D01*
D02*
G37*
G36*
X028583D02*
X028100Y045550D01*
Y045650D01*
X027650Y046100D01*
X028450D01*
X028583Y046033D01*
D02*
G37*
G36*
X023433D02*
X022950Y045550D01*
Y045650D01*
X022500Y046100D01*
X023300D01*
X023433Y046033D01*
D02*
G37*
G36*
X025450Y041250D02*
X025450Y040500D01*
X025100Y040150D01*
X023950D01*
X020850Y043250D01*
X019550D01*
X019100Y043700D01*
Y044400D01*
X019350Y044650D01*
X022050D01*
X025450Y041250D01*
D02*
G37*
G36*
X015600Y044400D02*
Y040450D01*
X015300Y040150D01*
X013300D01*
X013050Y040400D01*
Y044350D01*
X013350Y044650D01*
X015350D01*
X015600Y044400D01*
D02*
G37*
G36*
X017200Y044650D02*
X017450Y044400D01*
Y041100D01*
Y040500D01*
X017100Y040150D01*
X016050D01*
X015750Y040450D01*
Y044400D01*
X016000Y044650D01*
X017200Y044650D01*
D02*
G37*
G36*
X018850Y044400D02*
Y043800D01*
X021000Y041650D01*
X022150D01*
X022550Y041250D01*
Y040150D01*
X022200Y039800D01*
X020700D01*
X017600Y042900D01*
Y044400D01*
X017850Y044650D01*
X018600D01*
X018850Y044400D01*
D02*
G37*
G36*
X009950Y038450D02*
X009850D01*
X009400Y038000D01*
Y038450D01*
Y038800D01*
X009467Y038933D01*
X009950Y038450D01*
D02*
G37*
D11*
X029157Y014747D02*
X029490Y015080D01*
X029157Y014447D02*
Y014747D01*
X029110Y014400D02*
X029157Y014447D01*
X024900Y016974D02*
Y017350D01*
Y015950D02*
Y016974D01*
X014150Y015012D02*
X014265Y014897D01*
X036050Y018600D02*
Y019800D01*
X035450Y020400D02*
X036050Y019800D01*
X025660Y015694D02*
Y015950D01*
X024570Y012976D02*
X024594Y013000D01*
X024412Y012818D02*
X024570Y012976D01*
X024403Y012809D02*
X024412Y012818D01*
X039390Y041600D02*
X039500Y041490D01*
Y040304D02*
X039650Y040154D01*
X030591Y018805D02*
X031034Y018363D01*
Y017620D02*
Y018363D01*
X025660Y015950D02*
X025664D01*
X024900D02*
X025660D01*
X024900Y012950D02*
Y015950D01*
X024680Y017570D02*
X024900Y017350D01*
X024926Y016974D02*
X025664D01*
X027532Y014268D02*
Y015950D01*
Y014268D02*
X027550Y014250D01*
X027732Y016436D02*
X027935Y016233D01*
X027700Y020600D02*
X027732Y020568D01*
Y016436D02*
Y020568D01*
X029649Y018451D02*
Y020801D01*
X029250Y021200D02*
X029649Y020801D01*
Y018451D02*
X029723Y018377D01*
X030138Y015438D02*
X030524Y015824D01*
Y017113D01*
X024650Y017570D02*
X024821Y017741D01*
X024650Y017570D02*
X024680D01*
X025664Y017230D02*
X026270D01*
X026691Y013200D02*
Y013552D01*
X026270Y017230D02*
X026691Y016809D01*
Y013552D02*
Y016809D01*
X024667Y018247D02*
Y018567D01*
X024650Y018230D02*
X024667Y018247D01*
Y018567D02*
X024900Y018800D01*
X026800D01*
X029723Y018377D02*
X030019D01*
X030150Y016187D02*
Y018247D01*
X030019Y018377D02*
X030150Y018247D01*
X028400Y015438D02*
X030138D01*
X026800Y018800D02*
X027532Y018068D01*
Y015950D02*
Y018068D01*
Y015950D02*
X028400D01*
X024821Y017741D02*
X025664D01*
X024680Y018230D02*
X024912Y017997D01*
X024650Y018230D02*
X024680D01*
X024912Y017997D02*
X025664D01*
Y018509D02*
X026641D01*
X027202Y017948D01*
Y013552D02*
Y017948D01*
X026946Y013552D02*
Y017754D01*
X025664Y018253D02*
X026447D01*
X026946Y017754D01*
X030157Y018805D02*
X030591D01*
X030150Y018812D02*
X030157Y018805D01*
X028400Y015694D02*
X029094D01*
X029776Y016376D01*
Y017113D01*
X028400Y014400D02*
Y015182D01*
X009450Y035200D02*
X009452Y035198D01*
X035687Y043900D02*
X035950D01*
X027935Y016233D02*
X028372D01*
X028400Y016206D01*
X040110Y041600D02*
X040198Y041512D01*
X014810Y038550D02*
Y038638D01*
X035100Y038336D02*
X035136Y038300D01*
X019600Y038400D02*
X019650Y038450D01*
D37*
X030150Y016187D02*
D03*
X029776Y017113D02*
D03*
X030524D02*
D03*
X030150Y018813D02*
D03*
X030524Y017887D02*
D03*
X029776D02*
D03*
D38*
X035100Y041564D02*
D03*
X034100D02*
D03*
Y038336D02*
D03*
X035100D02*
D03*
X038500Y038236D02*
D03*
X037500D02*
D03*
Y041464D02*
D03*
X038500D02*
D03*
D39*
X043640Y023400D02*
D03*
X044360D02*
D03*
X036510Y041650D02*
D03*
X035790D02*
D03*
X020790Y038450D02*
D03*
X021510D02*
D03*
X014810Y038550D02*
D03*
X014090D02*
D03*
X040650Y015250D02*
D03*
X041370D02*
D03*
X043640Y026100D02*
D03*
X044360D02*
D03*
X039390Y041600D02*
D03*
X040110D02*
D03*
X029110Y014400D02*
D03*
X028390D02*
D03*
D40*
X043646Y024250D02*
D03*
X044354D02*
D03*
X044254Y018400D02*
D03*
X043546D02*
D03*
X044354Y025250D02*
D03*
X043646D02*
D03*
X013204Y038550D02*
D03*
X012496D02*
D03*
X018891Y038400D02*
D03*
X019600D02*
D03*
D41*
X014150Y015062D02*
D03*
Y012700D02*
D03*
X024250Y012700D02*
D03*
Y015062D02*
D03*
D42*
X031250Y012796D02*
D03*
Y013504D02*
D03*
X030100D02*
D03*
Y012796D02*
D03*
X036050Y039496D02*
D03*
Y040204D02*
D03*
X039650Y040154D02*
D03*
Y039446D02*
D03*
D43*
X028400Y015182D02*
D03*
Y015438D02*
D03*
Y015694D02*
D03*
Y015950D02*
D03*
Y016206D02*
D03*
Y016462D02*
D03*
Y016718D02*
D03*
Y016974D02*
D03*
Y017230D02*
D03*
Y017485D02*
D03*
Y017741D02*
D03*
Y017997D02*
D03*
Y018253D02*
D03*
Y018509D02*
D03*
X025664Y015182D02*
D03*
Y015438D02*
D03*
Y015694D02*
D03*
Y015950D02*
D03*
Y016206D02*
D03*
Y016462D02*
D03*
Y016718D02*
D03*
Y016974D02*
D03*
Y017230D02*
D03*
Y017485D02*
D03*
Y017741D02*
D03*
Y017997D02*
D03*
Y018253D02*
D03*
Y018509D02*
D03*
D44*
X022624Y015397D02*
D03*
Y016397D02*
D03*
Y015897D02*
D03*
Y017897D02*
D03*
Y018397D02*
D03*
Y017397D02*
D03*
Y016897D02*
D03*
Y020897D02*
D03*
Y021397D02*
D03*
Y022397D02*
D03*
Y021897D02*
D03*
Y019897D02*
D03*
Y020397D02*
D03*
Y019397D02*
D03*
Y018897D02*
D03*
Y023397D02*
D03*
Y022897D02*
D03*
X015813Y014897D02*
D03*
X022624D02*
D03*
X015813Y015397D02*
D03*
Y015897D02*
D03*
Y016397D02*
D03*
Y016897D02*
D03*
Y017397D02*
D03*
Y017897D02*
D03*
Y018397D02*
D03*
Y018897D02*
D03*
Y019397D02*
D03*
Y019897D02*
D03*
Y020397D02*
D03*
Y020897D02*
D03*
Y021397D02*
D03*
Y021897D02*
D03*
Y022397D02*
D03*
Y022897D02*
D03*
Y023397D02*
D03*
Y023897D02*
D03*
X022624D02*
D03*
D45*
X019572Y017850D02*
D03*
Y017128D02*
D03*
Y018572D02*
D03*
X018850Y017128D02*
D03*
X020295D02*
D03*
X018850Y017850D02*
D03*
X020295D02*
D03*
X018850Y018572D02*
D03*
X020295D02*
D03*
D46*
X027714Y013552D02*
D03*
X027458D02*
D03*
X027202D02*
D03*
X026946D02*
D03*
X026691D02*
D03*
D47*
X038420Y017750D02*
D03*
X039080D02*
D03*
X042130Y018400D02*
D03*
X041470D02*
D03*
D48*
X024650Y017570D02*
D03*
Y018230D02*
D03*
D73*
X031426Y015576D02*
X032050Y016200D01*
X031426Y013641D02*
Y015576D01*
X041150Y013650D02*
X043000Y015500D01*
Y017750D01*
X014150Y012650D02*
Y013350D01*
X039500Y040304D02*
Y041340D01*
Y040200D02*
Y040304D01*
X043296Y039696D02*
X043900Y040300D01*
X035041Y041650D02*
X035800D01*
X021364Y038596D02*
Y038786D01*
X019300Y040850D02*
X021364Y038786D01*
X018800Y040850D02*
X019300D01*
X021364Y038596D02*
X021510Y038450D01*
X024000Y045100D02*
X025750Y043350D01*
Y038250D02*
Y043350D01*
X024625Y037125D02*
X025750Y038250D01*
X040100Y041650D02*
X040150Y041600D01*
X041900Y023750D02*
X043290D01*
X022525Y019397D02*
X023497D01*
X025800Y021700D02*
Y029550D01*
X023497Y019397D02*
X025800Y021700D01*
X029200Y021200D02*
X029250Y021250D01*
X026816Y021200D02*
X029200D01*
X023166Y017974D02*
X026891Y021700D01*
X024050Y015900D02*
Y018434D01*
X022602Y018474D02*
X023200D01*
X026891Y021700D02*
X031900D01*
X024050Y018434D02*
X026816Y021200D01*
X023200Y018474D02*
X028431Y023706D01*
Y032118D01*
X022525Y018397D02*
X022602Y018474D01*
X038500Y038236D02*
X039036D01*
X039650Y038850D02*
Y039696D01*
X039036Y038236D02*
X039650Y038850D01*
X034950Y039750D02*
X035404Y040204D01*
X036050D01*
X035931Y038981D02*
Y039376D01*
X035900Y038950D02*
X035931Y038981D01*
Y039376D02*
X036050Y039496D01*
X030647Y019487D02*
X031090Y019043D01*
X030645Y019487D02*
X030647D01*
X030594Y019538D02*
X030645Y019487D01*
X030850Y016590D02*
X031414Y017154D01*
X030850Y014550D02*
Y016590D01*
X014098Y039350D02*
X014810Y038638D01*
X010800Y040850D02*
X012300Y039350D01*
X014098D01*
X015075Y037125D02*
X024625D01*
X013870Y017180D02*
Y034020D01*
X013900Y034050D01*
X039650Y039696D02*
X043296D01*
X029134Y045100D02*
X029142Y045092D01*
Y042958D02*
Y045092D01*
Y042958D02*
X029150Y042950D01*
X014650Y027250D02*
Y036700D01*
Y017800D02*
Y027250D01*
X034100Y023900D02*
Y034550D01*
X031900Y021700D02*
X034100Y023900D01*
X021900Y033450D02*
X025800Y029550D01*
X015700Y034050D02*
X023250D01*
X034600Y014400D02*
Y016450D01*
X032000Y019050D02*
Y020600D01*
Y019050D02*
X034600Y016450D01*
Y014400D02*
X034600Y014400D01*
X024150Y020700D02*
Y028770D01*
X022525Y019897D02*
X023347D01*
X024150Y020700D01*
X031648Y012798D02*
X031650Y012800D01*
X031252Y012798D02*
X031648D01*
X031250Y012796D02*
X031252Y012798D01*
X029700Y012800D02*
X029702Y012798D01*
X030098D01*
X030100Y012796D01*
X014250Y017300D02*
Y025300D01*
X014650Y017800D02*
X015053Y017397D01*
X014250Y017300D02*
X015147Y016403D01*
X013870Y017180D02*
X015147Y015903D01*
X021800Y024800D02*
Y029800D01*
X015858Y021450D02*
X015911Y021397D01*
X015100Y021450D02*
X015858D01*
X043640Y023400D02*
Y023410D01*
X043494Y023556D02*
X043640Y023410D01*
X043484Y023556D02*
X043494D01*
X043290Y023750D02*
X043484Y023556D01*
X034900Y018550D02*
X037100Y016350D01*
X039800D01*
X034900Y018550D02*
Y027250D01*
X035400Y012300D02*
X040450D01*
X028400D02*
X035400D01*
X024050Y015100D02*
X024250Y014900D01*
X040450Y012300D02*
X044500Y016350D01*
Y017400D01*
X027730Y012970D02*
X028400Y012300D01*
X023450Y014250D02*
Y015100D01*
X023700Y026707D02*
Y026750D01*
X023800Y021131D02*
Y026607D01*
X023143Y020474D02*
X023800Y021131D01*
X023700Y026707D02*
X023800Y026607D01*
X023400Y022564D02*
Y024850D01*
X023233Y022397D02*
X023400Y022564D01*
X022525Y022397D02*
X023233D01*
X031090Y019035D02*
X033222Y016904D01*
X031090Y019035D02*
Y019043D01*
X030600Y014300D02*
X030850Y014550D01*
X030600Y013965D02*
Y014300D01*
X031289Y013504D02*
X031426Y013641D01*
X031250Y013504D02*
X031289D01*
X040512Y015388D02*
Y015638D01*
Y015388D02*
X040650Y015250D01*
X039800Y016350D02*
X040512Y015638D01*
X030139Y013504D02*
X030600Y013965D01*
X030100Y013504D02*
X030139D01*
X023150Y015400D02*
X023450Y015100D01*
X021700Y013350D02*
Y020500D01*
X024050Y015100D02*
Y015900D01*
X024047Y015897D02*
X024050Y015900D01*
X022602Y017974D02*
X023166D01*
X022525Y017897D02*
X022602Y017974D01*
X022525Y017397D02*
X023309D01*
X023462Y017550D01*
X023500D01*
X015911Y021897D02*
X015961Y021947D01*
X016447D01*
X017150Y022650D01*
X022050Y020850D02*
X022478D01*
X022525Y020897D01*
X021700Y020500D02*
X022050Y020850D01*
X021800Y029800D02*
X022700Y030700D01*
X018089Y013061D02*
X019919D01*
X019950Y013030D01*
X016675Y016875D02*
X017250Y016300D01*
Y013900D02*
Y016300D01*
Y013900D02*
X018089Y013061D01*
X015911Y019397D02*
X016603D01*
X017850Y015250D02*
Y018150D01*
X016603Y019397D02*
X017850Y018150D01*
X015914Y020900D02*
X016600D01*
X018350Y022650D01*
Y032600D01*
X015911Y020897D02*
X015914Y020900D01*
X017150Y022650D02*
Y031650D01*
X015911Y022397D02*
X015988Y022474D01*
X016374D01*
X016700Y022800D01*
Y033650D01*
X014650Y036700D02*
X015075Y037125D01*
X015906Y015903D02*
X015911Y015897D01*
X015147Y015903D02*
X015906D01*
X015053Y017397D02*
X015911D01*
X015906Y016403D02*
X015911Y016397D01*
X015147Y016403D02*
X015906D01*
X009850Y020550D02*
Y024672D01*
Y024672D02*
X009850Y024672D01*
X010713D01*
X009850D02*
Y025029D01*
X026838Y012970D02*
X027730D01*
X026691Y013117D02*
Y013200D01*
Y013117D02*
X026838Y012970D01*
X022525Y015897D02*
X024047D01*
X022525Y015397D02*
X022528Y015400D01*
X023150D01*
X015003Y015397D02*
X015911D01*
X009850Y020550D02*
X015003Y015397D01*
X018650Y014450D02*
X019000D01*
X017850Y015250D02*
X018650Y014450D01*
X018281Y013869D02*
X019581D01*
X017550Y014600D02*
X018281Y013869D01*
X017550Y014600D02*
Y017400D01*
X015933Y016875D02*
X016675D01*
X016553Y018397D02*
X017550Y017400D01*
X015911Y018397D02*
X016553D01*
X015911Y016897D02*
X015933Y016875D01*
X022602Y020474D02*
X023143D01*
X010696Y023648D02*
X010833D01*
X027500Y033050D02*
X028431Y032118D01*
X024350Y033050D02*
X027500D01*
X033222Y014400D02*
Y016904D01*
X038265Y040465D02*
Y041230D01*
X038500Y041464D01*
X037640Y039840D02*
X038265Y040465D01*
X011400Y024150D02*
Y027200D01*
X010995Y023810D02*
X011060D01*
X011049Y027551D02*
X011400Y027200D01*
X010833Y023648D02*
X010995Y023810D01*
X011060D02*
X011400Y024150D01*
X010696Y027648D02*
X010793Y027551D01*
X011049D01*
X009850Y025029D02*
Y025100D01*
Y027286D01*
Y029802D02*
X010696Y030648D01*
X009850Y029011D02*
Y029802D01*
X009841Y027294D02*
X009850Y027286D01*
X009841Y027294D02*
Y029002D01*
X009850Y029011D01*
X022525Y020397D02*
X022602Y020474D01*
X035136Y038300D02*
X036055D01*
X019650Y038450D02*
X020790D01*
X030524Y017113D02*
Y017887D01*
X029776Y017113D02*
Y017887D01*
X013204Y038550D02*
X013204Y038550D01*
X014090D01*
D74*
X041470Y017750D02*
X043000D01*
X043350D01*
X044650Y036350D02*
Y040200D01*
X043408Y041442D02*
X044650Y040200D01*
X032400Y045999D02*
X034251D01*
X032400Y040056D02*
Y045999D01*
X028150D02*
X032400D01*
X037500Y041450D02*
X037578Y041528D01*
Y042350D01*
X036510Y041650D02*
Y043100D01*
X034050Y041550D02*
X034100Y041600D01*
Y042313D01*
X037578Y042350D02*
X039128Y043900D01*
X042450Y022300D02*
X043546Y021204D01*
X043550Y017950D02*
Y018400D01*
X041470Y017750D02*
Y018400D01*
X039080Y017750D02*
X041470D01*
X018312Y037821D02*
X018741Y038249D01*
X009800Y040850D02*
Y041750D01*
X025822Y036350D02*
X031103D01*
X025822D02*
X026150Y036678D01*
X022900Y036350D02*
X025822D01*
X026150Y036678D02*
Y044672D01*
X025969Y044853D02*
X026150Y044672D01*
X025969Y044853D02*
Y045100D01*
X034090Y017910D02*
Y019400D01*
X043546Y018400D02*
Y021204D01*
X042450Y026250D02*
X043500D01*
X041900D02*
X042450D01*
X037225Y019925D02*
X038050Y020750D01*
X042130Y018400D02*
Y020520D01*
X038050Y020750D02*
X041900D01*
X042130Y020520D01*
Y018400D02*
X042130Y018400D01*
X040670Y019850D02*
X040870Y019650D01*
X040900D01*
X037800Y019850D02*
X040670D01*
X041900Y026250D02*
Y032100D01*
X042250Y032450D01*
Y035050D01*
X043500Y026250D02*
X043650Y026100D01*
X016600Y036350D02*
X022900D01*
X015030D02*
X016600D01*
X041900Y020730D02*
Y023750D01*
X042130Y018400D02*
X042550D01*
X012879Y037821D02*
X013079D01*
X012607Y038093D02*
Y038439D01*
Y038093D02*
X012879Y037821D01*
X013079D02*
X013100Y037800D01*
X018299D01*
X012496Y038550D02*
X012607Y038439D01*
X018312Y037813D02*
Y037821D01*
X018299Y037800D02*
X018312Y037813D01*
X043350Y017750D02*
X043550Y017950D01*
X014049Y045999D02*
X023050D01*
X009800Y041750D02*
X014049Y045999D01*
X009450Y040500D02*
X009800Y040850D01*
X018891Y038361D02*
Y038400D01*
X018741Y038249D02*
X018780D01*
X018891Y038361D01*
X040150Y041450D02*
X043400D01*
X043350Y035050D02*
X044650Y036350D01*
X042250Y035050D02*
X043350D01*
X041900Y023750D02*
Y026250D01*
X032450Y035050D02*
X042250D01*
X042250Y035050D01*
X032400Y040036D02*
X033792Y038644D01*
X033890D02*
X034100Y038434D01*
Y038336D02*
Y038434D01*
X033792Y038644D02*
X033890D01*
X034251Y045999D02*
X034572Y045678D01*
Y043900D02*
Y045678D01*
X034310Y037740D02*
Y038126D01*
X034650Y037400D02*
X036900D01*
X034310Y037740D02*
X034650Y037400D01*
X037290Y038026D02*
X037500Y038236D01*
X037290Y037790D02*
Y038026D01*
X036900Y037400D02*
X037290Y037790D01*
X034100Y038336D02*
X034310Y038126D01*
X031103Y036350D02*
X031150D01*
X032450Y035050D01*
X031103Y036350D02*
Y045100D01*
X023050Y045999D02*
X028150D01*
X023016Y045965D02*
X023050Y045999D01*
X023016Y045100D02*
Y045965D01*
X028150Y045100D02*
Y045999D01*
X009450Y038550D02*
X012496D01*
X009450D02*
Y040500D01*
X031350Y022280D02*
Y031900D01*
X024900Y034850D02*
X028400D01*
X031350Y031900D01*
X031250Y022180D02*
X031350Y022280D01*
X031250Y022150D02*
Y022180D01*
X022850Y039650D02*
X024900D01*
X009450Y035200D02*
Y038550D01*
X037225Y016913D02*
Y019925D01*
X015910Y018898D02*
X015911Y018897D01*
X015030Y018899D02*
X015031Y018898D01*
X015910D01*
X035400Y012300D02*
Y016600D01*
X034090Y017910D02*
X035400Y016600D01*
X043650Y026100D02*
X043650D01*
X033342Y022092D02*
X033400Y022150D01*
X032500Y013500D02*
Y016650D01*
X041249Y015371D02*
Y015601D01*
X037365Y016850D02*
X040000D01*
X041249Y015601D01*
Y015371D02*
X041370Y015250D01*
X023987Y012325D02*
X024250Y012588D01*
X020900Y012325D02*
Y021250D01*
Y012325D02*
X022598D01*
X017725D02*
X020900D01*
X009452Y034648D02*
X010696D01*
X009452D02*
Y035198D01*
Y018998D02*
Y034648D01*
X022598Y012325D02*
X023987D01*
X022546Y014897D02*
X022598Y014845D01*
Y012325D02*
Y014845D01*
X022525Y014897D02*
X022546D01*
X021547Y021897D02*
X022525D01*
X020900Y021250D02*
X021547Y021897D01*
X015911Y014139D02*
X017725Y012325D01*
X015911Y014139D02*
Y014897D01*
X014060Y014922D02*
X014150Y015012D01*
X009452Y018998D02*
X013528Y014922D01*
X014060D01*
X014265Y014897D02*
X015813D01*
X034100Y042313D02*
X035687Y043900D01*
D75*
X044350Y024300D02*
X044360Y024290D01*
X018000Y040850D02*
X018891Y039959D01*
Y038400D02*
Y039959D01*
X044350Y026100D02*
X044354Y026096D01*
X042400Y024250D02*
X042450D01*
X043646D01*
X044354Y025250D02*
Y026096D01*
X044360Y023400D02*
Y024290D01*
X042450Y025250D02*
X043646D01*
X038424Y018124D02*
X038850Y018550D01*
X038424Y017754D02*
Y018124D01*
X038420Y017750D02*
X038424Y017754D01*
D76*
X024570Y012976D02*
X024860D01*
X024494D02*
X024570D01*
X024412Y012818D02*
Y012895D01*
Y012800D02*
Y012818D01*
Y012895D02*
X024494Y012976D01*
X024860D02*
X024884Y013000D01*
X024900D01*
X024250Y012638D02*
X024412Y012800D01*
D77*
X021122Y040850D02*
X021800D01*
X019628Y043900D02*
X021750D01*
X024800Y040850D01*
X016418Y043887D02*
X016800Y043505D01*
Y040850D02*
Y043505D01*
X013800Y042647D02*
X015040Y043887D01*
X013800Y040850D02*
Y042647D01*
D78*
X029150Y017000D02*
Y018700D01*
X028882Y016732D02*
X029150Y017000D01*
X028400Y016718D02*
X028414Y016732D01*
X028882D01*
X027743Y013777D02*
X028623D01*
X028900Y013010D02*
Y013500D01*
X028623Y013777D02*
X028900Y013500D01*
X027714Y013552D02*
Y013748D01*
X027743Y013777D01*
D79*
X033550Y021100D02*
Y021200D01*
Y018900D02*
Y021100D01*
X031650D02*
X033550D01*
X031300Y020750D02*
X031650Y021100D01*
X033500Y021250D02*
X034400Y022150D01*
X031300Y020600D02*
Y020750D01*
D80*
X012650Y021943D02*
D03*
Y036400D02*
D03*
X039130Y021943D02*
D03*
Y036400D02*
D03*
D81*
X010713Y029672D02*
D03*
Y030672D02*
D03*
Y031672D02*
D03*
Y032672D02*
D03*
Y033672D02*
D03*
Y034672D02*
D03*
Y035672D02*
D03*
Y022672D02*
D03*
Y023672D02*
D03*
Y024672D02*
D03*
Y025672D02*
D03*
Y026672D02*
D03*
Y027672D02*
D03*
Y028672D02*
D03*
X039524Y027672D02*
D03*
Y028672D02*
D03*
Y029672D02*
D03*
Y030672D02*
D03*
D82*
X010950Y040850D02*
D03*
X009950D02*
D03*
X042450Y021250D02*
D03*
Y022250D02*
D03*
Y023250D02*
D03*
Y024250D02*
D03*
Y025250D02*
D03*
X019000Y040850D02*
D03*
X018000D02*
D03*
D83*
X016950D02*
D03*
X013950D02*
D03*
X025000D02*
D03*
X022000D02*
D03*
D84*
X042450Y026250D02*
D03*
D85*
X039128Y043900D02*
D03*
X037750D02*
D03*
X034600Y014400D02*
D03*
X033222D02*
D03*
X019628Y043900D02*
D03*
X018250D02*
D03*
X035950D02*
D03*
X034572D02*
D03*
X015040Y043887D02*
D03*
X016418D02*
D03*
X038022Y014400D02*
D03*
X039400D02*
D03*
D86*
X035400Y022150D02*
D03*
X033400D02*
D03*
X034400D02*
D03*
D87*
X029134Y045100D02*
D03*
X030119D02*
D03*
X031103D02*
D03*
X028150D02*
D03*
X024000D02*
D03*
X024984D02*
D03*
X025969D02*
D03*
X023016D02*
D03*
D88*
X027202Y012554D02*
D03*
D89*
X026100Y013400D02*
D03*
X028305D02*
D03*
D90*
X043650Y044900D02*
D03*
X010500Y044750D02*
D03*
X010350Y013400D02*
D03*
X043815D02*
D03*
D91*
X032050Y016200D02*
D03*
X043800Y023300D02*
D03*
X029490Y015080D02*
D03*
X014150Y013350D02*
D03*
X040900Y019650D02*
D03*
X013100Y037800D02*
D03*
X034950Y039750D02*
D03*
X035900Y038950D02*
D03*
X030594Y019538D02*
D03*
X031414Y017154D02*
D03*
X016600Y036350D02*
D03*
X043900Y040350D02*
D03*
X040100Y041650D02*
D03*
X029150Y042900D02*
D03*
X042250Y032450D02*
D03*
X034100Y034550D02*
D03*
X031350Y031900D02*
D03*
X024900Y039650D02*
D03*
X022850D02*
D03*
X021900Y033450D02*
D03*
X024900Y034850D02*
D03*
X023250Y034050D02*
D03*
X022900Y036350D02*
D03*
X018350Y037800D02*
D03*
X029150Y018700D02*
D03*
X037800Y019850D02*
D03*
X035450Y020400D02*
D03*
X036050Y018600D02*
D03*
X024900Y013000D02*
D03*
X031650Y012800D02*
D03*
X029700D02*
D03*
X041150Y013650D02*
D03*
X014250Y025300D02*
D03*
X021800Y024800D02*
D03*
X015100Y021450D02*
D03*
X015030Y018899D02*
D03*
X031250Y022150D02*
D03*
X044500Y017400D02*
D03*
X044250Y018400D02*
D03*
X042550D02*
D03*
X023450Y014250D02*
D03*
X027550D02*
D03*
X032000Y020600D02*
D03*
X031300D02*
D03*
X033550Y018900D02*
D03*
X027700Y020600D02*
D03*
X023400Y024850D02*
D03*
X034100Y018350D02*
D03*
X032500Y013500D02*
D03*
Y016650D02*
D03*
X041450Y017800D02*
D03*
X030600Y014300D02*
D03*
X021700Y013350D02*
D03*
X023500Y017550D02*
D03*
X019950Y013030D02*
D03*
X015700Y034050D02*
D03*
X017150Y031650D02*
D03*
X016700Y033650D02*
D03*
X013900Y034050D02*
D03*
X015030Y036350D02*
D03*
X014650Y027250D02*
D03*
X034900D02*
D03*
X023700Y026750D02*
D03*
X019000Y014450D02*
D03*
X037225Y016913D02*
D03*
X038850Y018550D02*
D03*
X029250Y021200D02*
D03*
X024150Y028770D02*
D03*
X022700Y030700D02*
D03*
X024350Y033050D02*
D03*
X019581Y013869D02*
D03*
X018350Y032600D02*
D03*
X036055Y038300D02*
D03*
X036510Y043100D02*
D03*
X034090Y019400D02*
D03*
X028900Y013010D02*
D03*
X031034Y017620D02*
D03*
X037640Y039840D02*
D03*
M02*
