G04*
G04 #@! TF.GenerationSoftware,Altium Limited,Altium Designer,21.5.1 (32)*
G04*
G04 Layer_Color=16711935*
%FSAX24Y24*%
%MOIN*%
G70*
G04*
G04 #@! TF.SameCoordinates,E50B5674-5FFA-4352-8543-23BF37AEB5C9*
G04*
G04*
G04 #@! TF.FilePolarity,Positive*
G04*
G01*
G75*
%ADD113C,0.0039*%
D113*
X041981Y032893D02*
X042532D01*
Y033739D01*
X041981D02*
X042532D01*
X041981Y032893D02*
Y033739D01*
X021477Y040026D02*
X022323D01*
Y039474D02*
Y040026D01*
X021477Y039474D02*
X022323D01*
X021477D02*
Y040026D01*
X016976Y038127D02*
Y038973D01*
X016424Y038127D02*
X016976D01*
X016424D02*
Y038973D01*
X016976D01*
X013727Y039524D02*
Y040076D01*
Y039524D02*
X014573D01*
Y040076D01*
X013727D02*
X014573D01*
X011223Y039274D02*
Y039826D01*
X010377D02*
X011223D01*
X010377Y039274D02*
Y039826D01*
Y039274D02*
X011223D01*
X010924Y037827D02*
X011476D01*
Y038673D01*
X010924D02*
X011476D01*
X010924Y037827D02*
Y038673D01*
X010124Y038673D02*
X010676D01*
X010124Y037827D02*
Y038673D01*
Y037827D02*
X010676D01*
Y038673D01*
X031526Y012727D02*
Y013573D01*
X030974Y012727D02*
X031526D01*
X030974D02*
Y013573D01*
X031526D01*
X030376Y012727D02*
Y013573D01*
X029824Y012727D02*
X030376D01*
X029824D02*
Y013573D01*
X030376D01*
X030024Y015073D02*
X030576D01*
X030024Y014227D02*
Y015073D01*
Y014227D02*
X030576D01*
Y015073D01*
X032058Y018837D02*
Y019388D01*
X031211D02*
X032058D01*
X031211Y018837D02*
Y019388D01*
Y018837D02*
X032058D01*
X031211Y019774D02*
Y020326D01*
Y019774D02*
X032058D01*
Y020326D01*
X031211D02*
X032058D01*
X033827Y017324D02*
X034673D01*
X033827D02*
Y017876D01*
X034673D01*
Y017324D02*
Y017876D01*
X033877Y017076D02*
X034723D01*
Y016524D02*
Y017076D01*
X033877Y016524D02*
X034723D01*
X033877D02*
Y017076D01*
X035777Y020024D02*
X036623D01*
X035777D02*
Y020576D01*
X036623D01*
Y020024D02*
Y020576D01*
X035717Y019015D02*
X036583D01*
X035717D02*
Y019585D01*
X036583Y019015D02*
Y019585D01*
X035717D02*
X036583D01*
X043477Y018124D02*
Y018676D01*
Y018124D02*
X044323D01*
Y018676D01*
X043477D02*
X044323D01*
X041365Y019537D02*
Y020403D01*
X041935D01*
X041365Y019537D02*
X041935D01*
Y020403D01*
X042265Y019517D02*
Y020383D01*
X042835D01*
X042265Y019517D02*
X042835D01*
Y020383D01*
X043577Y023124D02*
X044423D01*
Y023676D01*
X043577D02*
X044423D01*
X043577Y023124D02*
Y023676D01*
Y024526D02*
X044423D01*
Y023974D02*
Y024526D01*
X043577Y023974D02*
Y024526D01*
Y023974D02*
X044423D01*
X043115Y019517D02*
Y020383D01*
X043685D01*
X043115Y019517D02*
X043685D01*
Y020383D01*
X043965Y019517D02*
Y020383D01*
X044535D01*
X043965Y019517D02*
X044535D01*
Y020383D01*
X043017Y022265D02*
X043883D01*
X043017D02*
Y022835D01*
X043883Y022265D02*
Y022835D01*
X043017D02*
X043883D01*
X043873Y022974D02*
Y023526D01*
X043027D02*
X043873D01*
X043027Y022974D02*
Y023526D01*
Y022974D02*
X043873D01*
X035727Y041374D02*
Y041926D01*
X036573D01*
Y041374D02*
Y041926D01*
X035727Y041374D02*
X036573D01*
X021573Y038174D02*
Y038726D01*
X020727Y038174D02*
X021573D01*
X020727D02*
Y038726D01*
X021573D01*
X014027Y038826D02*
X014873D01*
X014027Y038274D02*
Y038826D01*
Y038274D02*
X014873D01*
Y038826D01*
X041433Y014974D02*
Y015526D01*
X040587Y014974D02*
X041433D01*
X040587D02*
Y015526D01*
X041433D01*
X043577Y025824D02*
X044423D01*
Y026376D01*
X043577D02*
X044423D01*
X043577Y025824D02*
Y026376D01*
X044323Y018124D02*
Y018676D01*
X043477D02*
X044323D01*
X043477Y018124D02*
Y018676D01*
Y018124D02*
X044323D01*
X030974Y012727D02*
Y013573D01*
X031526D01*
X030974Y012727D02*
X031526D01*
Y013573D01*
X029824Y012727D02*
Y013573D01*
Y012727D02*
X030376D01*
Y013573D01*
X029824D02*
X030376D01*
X043577Y024974D02*
Y025526D01*
X044423D01*
Y024974D02*
Y025526D01*
X043577Y024974D02*
X044423D01*
X034177Y040826D02*
X035023D01*
Y040274D02*
Y040826D01*
X034177Y040274D02*
X035023D01*
X034177D02*
Y040826D01*
X035677Y040876D02*
X036523D01*
Y040324D02*
Y040876D01*
X035677Y040324D02*
X036523D01*
X035677D02*
Y040876D01*
X035774Y039427D02*
Y040273D01*
X036326D01*
X035774Y039427D02*
X036326D01*
Y040273D01*
X037577Y040726D02*
X038423D01*
Y040174D02*
Y040726D01*
X037577Y040174D02*
X038423D01*
X037577D02*
Y040726D01*
X039327Y041026D02*
X040173D01*
Y040474D02*
Y041026D01*
X039327Y040474D02*
X040173D01*
X039327D02*
Y041026D01*
X039926Y039377D02*
Y040223D01*
X039374Y039377D02*
X039926D01*
X039374Y040223D02*
X039926D01*
X039374Y039377D02*
Y040223D01*
X040173Y041324D02*
Y041876D01*
X039327Y041324D02*
X040173D01*
X039327D02*
Y041876D01*
X040173D01*
X038317Y017465D02*
X039183D01*
Y018035D01*
X038317Y017465D02*
Y018035D01*
X039183D01*
X041367Y018685D02*
X042233D01*
X041367Y018115D02*
Y018685D01*
X042233Y018115D02*
Y018685D01*
X041367Y018115D02*
X042233D01*
X028327Y014124D02*
Y014676D01*
X029173D01*
Y014124D02*
Y014676D01*
X028327Y014124D02*
X029173D01*
X024935Y017467D02*
Y018333D01*
X024365D02*
X024935D01*
X024365Y017467D02*
X024935D01*
X024365D02*
Y018333D01*
X022631Y038823D02*
X023182D01*
X022631Y037977D02*
Y038823D01*
Y037977D02*
X023182D01*
Y038823D01*
X018723Y039524D02*
Y040076D01*
X017877D02*
X018723D01*
X017877Y039524D02*
Y040076D01*
Y039524D02*
X018723D01*
X023474Y038823D02*
X024026D01*
X023474Y037977D02*
Y038823D01*
Y037977D02*
X024026D01*
Y038823D01*
X017524Y038973D02*
X018076D01*
X017524Y038127D02*
Y038973D01*
Y038127D02*
X018076D01*
Y038973D01*
X012427Y038274D02*
X013273D01*
X012427D02*
Y038826D01*
X013273Y038274D02*
Y038826D01*
X012427D02*
X013273D01*
X041367Y018685D02*
X042233D01*
Y018115D02*
Y018685D01*
X041367Y018115D02*
Y018685D01*
Y018115D02*
X042233D01*
X038417Y019665D02*
X039283D01*
X038417D02*
Y020235D01*
X039283Y019665D02*
Y020235D01*
X038417D02*
X039283D01*
X018822Y038676D02*
X019669D01*
Y038124D02*
Y038676D01*
X018822Y038124D02*
Y038676D01*
Y038124D02*
X019669D01*
M02*
