G04*
G04 #@! TF.GenerationSoftware,Altium Limited,Altium Designer,21.5.1 (32)*
G04*
G04 Layer_Color=16711935*
%FSAX24Y24*%
%MOIN*%
G70*
G04*
G04 #@! TF.SameCoordinates,E50B5674-5FFA-4352-8543-23BF37AEB5C9*
G04*
G04*
G04 #@! TF.FilePolarity,Negative*
G04*
G01*
G75*
%ADD49R,0.0316X0.0651*%
%ADD51R,0.0572X0.0592*%
%ADD59R,0.0572X0.0631*%
%ADD60R,0.0631X0.0572*%
%ADD61C,0.1655*%
%ADD62C,0.0789*%
%ADD63C,0.0671*%
%ADD64C,0.0867*%
%ADD65R,0.0671X0.0671*%
%ADD66C,0.0946*%
%ADD67C,0.0631*%
%ADD68O,0.0780X0.1030*%
%ADD69O,0.0907X0.0513*%
%ADD70O,0.0710X0.0513*%
%ADD71C,0.2049*%
%ADD72C,0.0440*%
%ADD103R,0.0946X0.0749*%
%ADD104R,0.0867X0.0867*%
%ADD105R,0.0867X0.0867*%
%ADD106R,0.1340X0.0907*%
%ADD107R,0.0434X0.0907*%
%ADD108R,0.0671X0.1064*%
%ADD109R,0.0316X0.0533*%
%ADD110O,0.1025X0.0395*%
%ADD111R,0.1025X0.0395*%
%ADD112R,0.0592X0.0572*%
D49*
X012300Y041013D02*
D03*
X011926Y040087D02*
D03*
X012674D02*
D03*
X020674Y039787D02*
D03*
X019926D02*
D03*
X020300Y040713D02*
D03*
D51*
X021540Y039750D02*
D03*
X022260D02*
D03*
X014510Y039800D02*
D03*
X013790D02*
D03*
X010440Y039550D02*
D03*
X011160D02*
D03*
X031274Y019112D02*
D03*
X031994D02*
D03*
Y020050D02*
D03*
X031274D02*
D03*
X034610Y017600D02*
D03*
X033890D02*
D03*
X033940Y016800D02*
D03*
X034660D02*
D03*
X036560Y020300D02*
D03*
X035840D02*
D03*
X044260Y018400D02*
D03*
X043540D02*
D03*
X043090Y023250D02*
D03*
X043810D02*
D03*
X034240Y040550D02*
D03*
X034960D02*
D03*
X035740Y040600D02*
D03*
X036460D02*
D03*
X037640Y040450D02*
D03*
X038360D02*
D03*
X039390Y040750D02*
D03*
X040110D02*
D03*
X017940Y039800D02*
D03*
X018660D02*
D03*
D59*
X036480Y019300D02*
D03*
X035820D02*
D03*
X043780Y022550D02*
D03*
X043120D02*
D03*
X041470Y018400D02*
D03*
X042130D02*
D03*
X039180Y019950D02*
D03*
X038520D02*
D03*
D60*
X041650Y019640D02*
D03*
Y020300D02*
D03*
X042550Y019620D02*
D03*
Y020280D02*
D03*
X043400Y019620D02*
D03*
Y020280D02*
D03*
X044250Y019620D02*
D03*
Y020280D02*
D03*
D61*
X012650Y021943D02*
D03*
Y036400D02*
D03*
X039130Y021943D02*
D03*
Y036400D02*
D03*
D62*
X010713Y029672D02*
D03*
Y030672D02*
D03*
Y031672D02*
D03*
Y032672D02*
D03*
Y033672D02*
D03*
Y034672D02*
D03*
Y035672D02*
D03*
Y022672D02*
D03*
Y023672D02*
D03*
Y024672D02*
D03*
Y025672D02*
D03*
Y026672D02*
D03*
Y027672D02*
D03*
Y028672D02*
D03*
X039524Y027672D02*
D03*
Y028672D02*
D03*
Y029672D02*
D03*
Y030672D02*
D03*
D63*
X010950Y040850D02*
D03*
X009950D02*
D03*
X042450Y021250D02*
D03*
Y022250D02*
D03*
Y023250D02*
D03*
Y024250D02*
D03*
Y025250D02*
D03*
X019000Y040850D02*
D03*
X018000D02*
D03*
D64*
X016950D02*
D03*
X013950D02*
D03*
X025000D02*
D03*
X022000D02*
D03*
D65*
X042450Y026250D02*
D03*
D66*
X039128Y043900D02*
D03*
X037750D02*
D03*
X034600Y014400D02*
D03*
X033222D02*
D03*
X019628Y043900D02*
D03*
X018250D02*
D03*
X035950D02*
D03*
X034572D02*
D03*
X015040Y043887D02*
D03*
X016418D02*
D03*
X038022Y014400D02*
D03*
X039400D02*
D03*
D67*
X035400Y022150D02*
D03*
X033400D02*
D03*
X034400D02*
D03*
D68*
X029134Y045100D02*
D03*
X030119D02*
D03*
X031103D02*
D03*
X028150D02*
D03*
X024000D02*
D03*
X024984D02*
D03*
X025969D02*
D03*
X023016D02*
D03*
D69*
X027202Y012554D02*
D03*
D70*
X026100Y013400D02*
D03*
X028305D02*
D03*
D71*
X043650Y044900D02*
D03*
X010500Y044750D02*
D03*
X010350Y013400D02*
D03*
X043815D02*
D03*
D72*
X024350Y033050D02*
D03*
D103*
X021914Y038900D02*
D03*
Y037900D02*
D03*
X018686D02*
D03*
Y038900D02*
D03*
X012436Y038950D02*
D03*
Y037950D02*
D03*
X015664D02*
D03*
Y038950D02*
D03*
D104*
X019146Y042020D02*
D03*
X020800Y042000D02*
D03*
X013254Y041980D02*
D03*
X011600Y042000D02*
D03*
D105*
X044430Y015746D02*
D03*
X044450Y017400D02*
D03*
D106*
X042350Y015178D02*
D03*
D107*
X043256Y017422D02*
D03*
X042350D02*
D03*
X041444D02*
D03*
D108*
X037826Y018820D02*
D03*
X039874D02*
D03*
X037826Y015380D02*
D03*
X039874D02*
D03*
D109*
X036624Y017257D02*
D03*
X035876D02*
D03*
X036250Y018143D02*
D03*
X032100Y018043D02*
D03*
X031726Y017157D02*
D03*
X032474D02*
D03*
D110*
X034850Y018900D02*
D03*
X032850D02*
D03*
Y019400D02*
D03*
Y020400D02*
D03*
X034850Y019400D02*
D03*
Y019900D02*
D03*
X032850D02*
D03*
D111*
X034850Y020400D02*
D03*
D112*
X042257Y033676D02*
D03*
Y032956D02*
D03*
X016700Y038910D02*
D03*
Y038190D02*
D03*
X011200Y038610D02*
D03*
Y037890D02*
D03*
X010400Y037890D02*
D03*
Y038610D02*
D03*
X031250Y013510D02*
D03*
Y012790D02*
D03*
X030100Y013510D02*
D03*
Y012790D02*
D03*
X030300Y014290D02*
D03*
Y015010D02*
D03*
X022907Y038040D02*
D03*
Y038760D02*
D03*
X023750Y038040D02*
D03*
Y038760D02*
D03*
X017800Y038190D02*
D03*
Y038910D02*
D03*
M02*
