G04*
G04 #@! TF.GenerationSoftware,Altium Limited,Altium Designer,21.5.1 (32)*
G04*
G04 Layer_Color=8421504*
%FSAX24Y24*%
%MOIN*%
G70*
G04*
G04 #@! TF.SameCoordinates,E50B5674-5FFA-4352-8543-23BF37AEB5C9*
G04*
G04*
G04 #@! TF.FilePolarity,Positive*
G04*
G01*
G75*
%ADD37R,0.0236X0.0571*%
%ADD38R,0.0669X0.0866*%
%ADD39R,0.0492X0.0512*%
%ADD40R,0.0472X0.0551*%
%ADD41R,0.0787X0.0984*%
%ADD42R,0.0551X0.0472*%
%ADD43R,0.0807X0.0155*%
%ADD44R,0.0965X0.0354*%
%ADD45R,0.0524X0.0524*%
%ADD46R,0.0177X0.0591*%
%ADD47R,0.0492X0.0551*%
%ADD48R,0.0551X0.0492*%
D37*
X030150Y016187D02*
D03*
X029776Y017113D02*
D03*
X030524D02*
D03*
X030150Y018813D02*
D03*
X030524Y017887D02*
D03*
X029776D02*
D03*
D38*
X035100Y041564D02*
D03*
X034100D02*
D03*
Y038336D02*
D03*
X035100D02*
D03*
X038500Y038236D02*
D03*
X037500D02*
D03*
Y041464D02*
D03*
X038500D02*
D03*
D39*
X043640Y023400D02*
D03*
X044360D02*
D03*
X036510Y041650D02*
D03*
X035790D02*
D03*
X020790Y038450D02*
D03*
X021510D02*
D03*
X014810Y038550D02*
D03*
X014090D02*
D03*
X040650Y015250D02*
D03*
X041370D02*
D03*
X043640Y026100D02*
D03*
X044360D02*
D03*
X039390Y041600D02*
D03*
X040110D02*
D03*
X029110Y014400D02*
D03*
X028390D02*
D03*
D40*
X043646Y024250D02*
D03*
X044354D02*
D03*
X044254Y018400D02*
D03*
X043546D02*
D03*
X044354Y025250D02*
D03*
X043646D02*
D03*
X013204Y038550D02*
D03*
X012496D02*
D03*
X018891Y038400D02*
D03*
X019600D02*
D03*
D41*
X014150Y015062D02*
D03*
Y012700D02*
D03*
X024250Y012700D02*
D03*
Y015062D02*
D03*
D42*
X031250Y012796D02*
D03*
Y013504D02*
D03*
X030100D02*
D03*
Y012796D02*
D03*
X036050Y039496D02*
D03*
Y040204D02*
D03*
X039650Y040154D02*
D03*
Y039446D02*
D03*
D43*
X028400Y015182D02*
D03*
Y015438D02*
D03*
Y015694D02*
D03*
Y015950D02*
D03*
Y016206D02*
D03*
Y016462D02*
D03*
Y016718D02*
D03*
Y016974D02*
D03*
Y017230D02*
D03*
Y017485D02*
D03*
Y017741D02*
D03*
Y017997D02*
D03*
Y018253D02*
D03*
Y018509D02*
D03*
X025664Y015182D02*
D03*
Y015438D02*
D03*
Y015694D02*
D03*
Y015950D02*
D03*
Y016206D02*
D03*
Y016462D02*
D03*
Y016718D02*
D03*
Y016974D02*
D03*
Y017230D02*
D03*
Y017485D02*
D03*
Y017741D02*
D03*
Y017997D02*
D03*
Y018253D02*
D03*
Y018509D02*
D03*
D44*
X022624Y015397D02*
D03*
Y016397D02*
D03*
Y015897D02*
D03*
Y017897D02*
D03*
Y018397D02*
D03*
Y017397D02*
D03*
Y016897D02*
D03*
Y020897D02*
D03*
Y021397D02*
D03*
Y022397D02*
D03*
Y021897D02*
D03*
Y019897D02*
D03*
Y020397D02*
D03*
Y019397D02*
D03*
Y018897D02*
D03*
Y023397D02*
D03*
Y022897D02*
D03*
X015813Y014897D02*
D03*
X022624D02*
D03*
X015813Y015397D02*
D03*
Y015897D02*
D03*
Y016397D02*
D03*
Y016897D02*
D03*
Y017397D02*
D03*
Y017897D02*
D03*
Y018397D02*
D03*
Y018897D02*
D03*
Y019397D02*
D03*
Y019897D02*
D03*
Y020397D02*
D03*
Y020897D02*
D03*
Y021397D02*
D03*
Y021897D02*
D03*
Y022397D02*
D03*
Y022897D02*
D03*
Y023397D02*
D03*
Y023897D02*
D03*
X022624D02*
D03*
D45*
X019572Y017850D02*
D03*
Y017128D02*
D03*
Y018572D02*
D03*
X018850Y017128D02*
D03*
X020295D02*
D03*
X018850Y017850D02*
D03*
X020295D02*
D03*
X018850Y018572D02*
D03*
X020295D02*
D03*
D46*
X027714Y013552D02*
D03*
X027458D02*
D03*
X027202D02*
D03*
X026946D02*
D03*
X026691D02*
D03*
D47*
X038420Y017750D02*
D03*
X039080D02*
D03*
X042130Y018400D02*
D03*
X041470D02*
D03*
D48*
X024650Y017570D02*
D03*
Y018230D02*
D03*
M02*
