G04*
G04 #@! TF.GenerationSoftware,Altium Limited,Altium Designer,21.5.1 (32)*
G04*
G04 Layer_Color=2752767*
%FSAX24Y24*%
%MOIN*%
G70*
G04*
G04 #@! TF.SameCoordinates,E50B5674-5FFA-4352-8543-23BF37AEB5C9*
G04*
G04*
G04 #@! TF.FilePolarity,Positive*
G04*
G01*
G75*
%ADD114C,0.0020*%
%ADD115C,0.0027*%
%ADD116C,0.0013*%
D114*
X012570Y021863D02*
Y022023D01*
X012730D01*
Y021863D01*
X012570D01*
Y036320D02*
Y036480D01*
X012730D01*
Y036320D01*
X012570D01*
X039050Y021863D02*
Y022023D01*
X039210D01*
Y021863D01*
X039050D01*
Y036320D02*
Y036480D01*
X039210D01*
Y036320D01*
X039050D01*
X010950Y040770D02*
X010870Y040930D01*
X011030D01*
X010950Y040770D01*
X016950D02*
X016990Y040810D01*
X017030D01*
X016990Y040850D01*
X017030Y040890D01*
X016990D01*
X016950Y040930D01*
X016910Y040890D01*
X016870D01*
X016910Y040850D01*
X016870Y040810D01*
X016910D01*
X016950Y040770D01*
X013950D02*
X013990Y040810D01*
X014030D01*
X013990Y040850D01*
X014030Y040890D01*
X013990D01*
X013950Y040930D01*
X013910Y040890D01*
X013870D01*
X013910Y040850D01*
X013870Y040810D01*
X013910D01*
X013950Y040770D01*
X009950D02*
X009870Y040930D01*
X010030D01*
X009950Y040770D01*
X042370Y021170D02*
X042410Y021250D01*
X042370Y021330D01*
X042450Y021290D01*
X042530Y021330D01*
X042490Y021250D01*
X042530Y021170D01*
X042450Y021210D01*
X042370Y021170D01*
Y022170D02*
X042410Y022250D01*
X042370Y022330D01*
X042450Y022290D01*
X042530Y022330D01*
X042490Y022250D01*
X042530Y022170D01*
X042450Y022210D01*
X042370Y022170D01*
Y023170D02*
X042410Y023250D01*
X042370Y023330D01*
X042450Y023290D01*
X042530Y023330D01*
X042490Y023250D01*
X042530Y023170D01*
X042450Y023210D01*
X042370Y023170D01*
Y024170D02*
X042410Y024250D01*
X042370Y024330D01*
X042450Y024290D01*
X042530Y024330D01*
X042490Y024250D01*
X042530Y024170D01*
X042450Y024210D01*
X042370Y024170D01*
Y025170D02*
X042410Y025250D01*
X042370Y025330D01*
X042450Y025290D01*
X042530Y025330D01*
X042490Y025250D01*
X042530Y025170D01*
X042450Y025210D01*
X042370Y025170D01*
Y026170D02*
X042410Y026250D01*
X042370Y026330D01*
X042450Y026290D01*
X042530Y026330D01*
X042490Y026250D01*
X042530Y026170D01*
X042450Y026210D01*
X042370Y026170D01*
X039088Y043860D02*
Y043820D01*
X039168D01*
Y043860D01*
X039208D01*
Y043940D01*
X039168D01*
Y043980D01*
X039088D01*
Y043940D01*
X039048D01*
Y043860D01*
X039088D01*
X037710D02*
Y043820D01*
X037790D01*
Y043860D01*
X037830D01*
Y043940D01*
X037790D01*
Y043980D01*
X037710D01*
Y043940D01*
X037670D01*
Y043860D01*
X037710D01*
X019000Y040770D02*
X018920Y040930D01*
X019080D01*
X019000Y040770D01*
X025000D02*
X025040Y040810D01*
X025080D01*
X025040Y040850D01*
X025080Y040890D01*
X025040D01*
X025000Y040930D01*
X024960Y040890D01*
X024920D01*
X024960Y040850D01*
X024920Y040810D01*
X024960D01*
X025000Y040770D01*
X022000D02*
X022040Y040810D01*
X022080D01*
X022040Y040850D01*
X022080Y040890D01*
X022040D01*
X022000Y040930D01*
X021960Y040890D01*
X021920D01*
X021960Y040850D01*
X021920Y040810D01*
X021960D01*
X022000Y040770D01*
X018000D02*
X017920Y040930D01*
X018080D01*
X018000Y040770D01*
X034560Y014360D02*
Y014320D01*
X034640D01*
Y014360D01*
X034680D01*
Y014440D01*
X034640D01*
Y014480D01*
X034560D01*
Y014440D01*
X034520D01*
Y014360D01*
X034560D01*
X033182D02*
Y014320D01*
X033262D01*
Y014360D01*
X033302D01*
Y014440D01*
X033262D01*
Y014480D01*
X033182D01*
Y014440D01*
X033142D01*
Y014360D01*
X033182D01*
X035320Y022070D02*
X035360D01*
X035400Y022110D01*
X035440Y022070D01*
X035480D01*
Y022110D01*
X035440Y022150D01*
X035480Y022190D01*
Y022230D01*
X035440D01*
X035400Y022190D01*
X035360Y022230D01*
X035320D01*
Y022190D01*
X035360Y022150D01*
X035320Y022110D01*
Y022070D01*
X033320D02*
X033360D01*
X033400Y022110D01*
X033440Y022070D01*
X033480D01*
Y022110D01*
X033440Y022150D01*
X033480Y022190D01*
Y022230D01*
X033440D01*
X033400Y022190D01*
X033360Y022230D01*
X033320D01*
Y022190D01*
X033360Y022150D01*
X033320Y022110D01*
Y022070D01*
X034320D02*
X034360D01*
X034400Y022110D01*
X034440Y022070D01*
X034480D01*
Y022110D01*
X034440Y022150D01*
X034480Y022190D01*
Y022230D01*
X034440D01*
X034400Y022190D01*
X034360Y022230D01*
X034320D01*
Y022190D01*
X034360Y022150D01*
X034320Y022110D01*
Y022070D01*
X019588Y043860D02*
Y043820D01*
X019668D01*
Y043860D01*
X019708D01*
Y043940D01*
X019668D01*
Y043980D01*
X019588D01*
Y043940D01*
X019548D01*
Y043860D01*
X019588D01*
X018210D02*
Y043820D01*
X018290D01*
Y043860D01*
X018330D01*
Y043940D01*
X018290D01*
Y043980D01*
X018210D01*
Y043940D01*
X018170D01*
Y043860D01*
X018210D01*
X035910D02*
Y043820D01*
X035990D01*
Y043860D01*
X036030D01*
Y043940D01*
X035990D01*
Y043980D01*
X035910D01*
Y043940D01*
X035870D01*
Y043860D01*
X035910D01*
X034532D02*
Y043820D01*
X034612D01*
Y043860D01*
X034652D01*
Y043940D01*
X034612D01*
Y043980D01*
X034532D01*
Y043940D01*
X034492D01*
Y043860D01*
X034532D01*
X029054Y045100D02*
X029134Y045180D01*
X029214Y045100D01*
X029134Y045020D01*
X029054Y045100D01*
X030038D02*
X030119Y045180D01*
X030199Y045100D01*
X030119Y045020D01*
X030038Y045100D01*
X031023D02*
X031103Y045180D01*
X031183Y045100D01*
X031103Y045020D01*
X031023Y045100D01*
X028070D02*
X028150Y045180D01*
X028230Y045100D01*
X028150Y045020D01*
X028070Y045100D01*
X015000Y043847D02*
Y043807D01*
X015080D01*
Y043847D01*
X015120D01*
Y043927D01*
X015080D01*
Y043967D01*
X015000D01*
Y043927D01*
X014960D01*
Y043847D01*
X015000D01*
X016378D02*
Y043807D01*
X016458D01*
Y043847D01*
X016498D01*
Y043927D01*
X016458D01*
Y043967D01*
X016378D01*
Y043927D01*
X016338D01*
Y043847D01*
X016378D01*
X027122Y012474D02*
Y012634D01*
X027282D01*
Y012474D01*
X027122D01*
X027162Y012514D02*
Y012594D01*
X027242D01*
Y012514D01*
X027162D01*
X043570Y044820D02*
Y044980D01*
X043730D01*
Y044820D01*
X043570D01*
X037982Y014360D02*
Y014320D01*
X038062D01*
Y014360D01*
X038102D01*
Y014440D01*
X038062D01*
Y014480D01*
X037982D01*
Y014440D01*
X037942D01*
Y014360D01*
X037982D01*
X039360D02*
Y014320D01*
X039440D01*
Y014360D01*
X039480D01*
Y014440D01*
X039440D01*
Y014480D01*
X039360D01*
Y014440D01*
X039320D01*
Y014360D01*
X039360D01*
X023920Y045100D02*
X024000Y045180D01*
X024080Y045100D01*
X024000Y045020D01*
X023920Y045100D01*
X024904D02*
X024984Y045180D01*
X025064Y045100D01*
X024984Y045020D01*
X024904Y045100D01*
X025889D02*
X025969Y045180D01*
X026049Y045100D01*
X025969Y045020D01*
X025889Y045100D01*
X022936D02*
X023016Y045180D01*
X023096Y045100D01*
X023016Y045020D01*
X022936Y045100D01*
X010420Y044670D02*
Y044830D01*
X010580D01*
Y044670D01*
X010420D01*
X010270Y013320D02*
Y013480D01*
X010430D01*
Y013320D01*
X010270D01*
X043735D02*
Y013480D01*
X043895D01*
Y013320D01*
X043735D01*
X032050Y016120D02*
X031970Y016280D01*
X032130D01*
X032050Y016120D01*
Y016160D02*
X032010Y016240D01*
X032090D01*
X032050Y016160D01*
X043800Y023220D02*
X043720Y023380D01*
X043880D01*
X043800Y023220D01*
Y023260D02*
X043760Y023340D01*
X043840D01*
X043800Y023260D01*
X029490Y015000D02*
X029410Y015160D01*
X029570D01*
X029490Y015000D01*
Y015040D02*
X029450Y015120D01*
X029530D01*
X029490Y015040D01*
X014150Y013270D02*
X014070Y013430D01*
X014230D01*
X014150Y013270D01*
Y013310D02*
X014110Y013390D01*
X014190D01*
X014150Y013310D01*
X040900Y019570D02*
X040820Y019730D01*
X040980D01*
X040900Y019570D01*
Y019610D02*
X040860Y019690D01*
X040940D01*
X040900Y019610D01*
X013100Y037720D02*
X013020Y037880D01*
X013180D01*
X013100Y037720D01*
Y037760D02*
X013060Y037840D01*
X013140D01*
X013100Y037760D01*
X034950Y039670D02*
X034870Y039830D01*
X035030D01*
X034950Y039670D01*
Y039710D02*
X034910Y039790D01*
X034990D01*
X034950Y039710D01*
X035900Y038870D02*
X035820Y039030D01*
X035980D01*
X035900Y038870D01*
Y038910D02*
X035860Y038990D01*
X035940D01*
X035900Y038910D01*
X030594Y019458D02*
X030514Y019618D01*
X030674D01*
X030594Y019458D01*
Y019498D02*
X030554Y019578D01*
X030634D01*
X030594Y019498D01*
X031414Y017074D02*
X031334Y017234D01*
X031494D01*
X031414Y017074D01*
Y017114D02*
X031374Y017194D01*
X031454D01*
X031414Y017114D01*
X016600Y036270D02*
X016520Y036430D01*
X016680D01*
X016600Y036270D01*
Y036310D02*
X016560Y036390D01*
X016640D01*
X016600Y036310D01*
X043900Y040270D02*
X043820Y040430D01*
X043980D01*
X043900Y040270D01*
Y040310D02*
X043860Y040390D01*
X043940D01*
X043900Y040310D01*
X040100Y041570D02*
X040020Y041730D01*
X040180D01*
X040100Y041570D01*
Y041610D02*
X040060Y041690D01*
X040140D01*
X040100Y041610D01*
X029150Y042820D02*
X029070Y042980D01*
X029230D01*
X029150Y042820D01*
Y042860D02*
X029110Y042940D01*
X029190D01*
X029150Y042860D01*
X042250Y032370D02*
X042170Y032530D01*
X042330D01*
X042250Y032370D01*
Y032410D02*
X042210Y032490D01*
X042290D01*
X042250Y032410D01*
X034100Y034470D02*
X034020Y034630D01*
X034180D01*
X034100Y034470D01*
Y034510D02*
X034060Y034590D01*
X034140D01*
X034100Y034510D01*
X031350Y031820D02*
X031270Y031980D01*
X031430D01*
X031350Y031820D01*
Y031860D02*
X031310Y031940D01*
X031390D01*
X031350Y031860D01*
X024900Y039570D02*
X024820Y039730D01*
X024980D01*
X024900Y039570D01*
Y039610D02*
X024860Y039690D01*
X024940D01*
X024900Y039610D01*
X022850Y039570D02*
X022770Y039730D01*
X022930D01*
X022850Y039570D01*
Y039610D02*
X022810Y039690D01*
X022890D01*
X022850Y039610D01*
X021900Y033370D02*
X021820Y033530D01*
X021980D01*
X021900Y033370D01*
Y033410D02*
X021860Y033490D01*
X021940D01*
X021900Y033410D01*
X024900Y034770D02*
X024820Y034930D01*
X024980D01*
X024900Y034770D01*
Y034810D02*
X024860Y034890D01*
X024940D01*
X024900Y034810D01*
X023250Y033970D02*
X023170Y034130D01*
X023330D01*
X023250Y033970D01*
Y034010D02*
X023210Y034090D01*
X023290D01*
X023250Y034010D01*
X022900Y036270D02*
X022820Y036430D01*
X022980D01*
X022900Y036270D01*
Y036310D02*
X022860Y036390D01*
X022940D01*
X022900Y036310D01*
X018350Y037720D02*
X018270Y037880D01*
X018430D01*
X018350Y037720D01*
Y037760D02*
X018310Y037840D01*
X018390D01*
X018350Y037760D01*
X029150Y018620D02*
X029070Y018780D01*
X029230D01*
X029150Y018620D01*
Y018660D02*
X029110Y018740D01*
X029190D01*
X029150Y018660D01*
X037800Y019770D02*
X037720Y019930D01*
X037880D01*
X037800Y019770D01*
Y019810D02*
X037760Y019890D01*
X037840D01*
X037800Y019810D01*
X035450Y020320D02*
X035370Y020480D01*
X035530D01*
X035450Y020320D01*
Y020360D02*
X035410Y020440D01*
X035490D01*
X035450Y020360D01*
X036050Y018520D02*
X035970Y018680D01*
X036130D01*
X036050Y018520D01*
Y018560D02*
X036010Y018640D01*
X036090D01*
X036050Y018560D01*
X024900Y012920D02*
X024820Y013080D01*
X024980D01*
X024900Y012920D01*
Y012960D02*
X024860Y013040D01*
X024940D01*
X024900Y012960D01*
X031650Y012720D02*
X031570Y012880D01*
X031730D01*
X031650Y012720D01*
Y012760D02*
X031610Y012840D01*
X031690D01*
X031650Y012760D01*
X029700Y012720D02*
X029620Y012880D01*
X029780D01*
X029700Y012720D01*
Y012760D02*
X029660Y012840D01*
X029740D01*
X029700Y012760D01*
X041150Y013570D02*
X041070Y013730D01*
X041230D01*
X041150Y013570D01*
Y013610D02*
X041110Y013690D01*
X041190D01*
X041150Y013610D01*
X014250Y025220D02*
X014170Y025380D01*
X014330D01*
X014250Y025220D01*
Y025260D02*
X014210Y025340D01*
X014290D01*
X014250Y025260D01*
X021800Y024720D02*
X021720Y024880D01*
X021880D01*
X021800Y024720D01*
Y024760D02*
X021760Y024840D01*
X021840D01*
X021800Y024760D01*
X015100Y021370D02*
X015020Y021530D01*
X015180D01*
X015100Y021370D01*
Y021410D02*
X015060Y021490D01*
X015140D01*
X015100Y021410D01*
X015030Y018819D02*
X014950Y018979D01*
X015110D01*
X015030Y018819D01*
Y018859D02*
X014990Y018939D01*
X015070D01*
X015030Y018859D01*
X031250Y022070D02*
X031170Y022230D01*
X031330D01*
X031250Y022070D01*
Y022110D02*
X031210Y022190D01*
X031290D01*
X031250Y022110D01*
X044500Y017320D02*
X044420Y017480D01*
X044580D01*
X044500Y017320D01*
Y017360D02*
X044460Y017440D01*
X044540D01*
X044500Y017360D01*
X044250Y018320D02*
X044170Y018480D01*
X044330D01*
X044250Y018320D01*
Y018360D02*
X044210Y018440D01*
X044290D01*
X044250Y018360D01*
X042550Y018320D02*
X042470Y018480D01*
X042630D01*
X042550Y018320D01*
Y018360D02*
X042510Y018440D01*
X042590D01*
X042550Y018360D01*
X023450Y014170D02*
X023370Y014330D01*
X023530D01*
X023450Y014170D01*
Y014210D02*
X023410Y014290D01*
X023490D01*
X023450Y014210D01*
X027550Y014170D02*
X027470Y014330D01*
X027630D01*
X027550Y014170D01*
Y014210D02*
X027510Y014290D01*
X027590D01*
X027550Y014210D01*
X032000Y020520D02*
X031920Y020680D01*
X032080D01*
X032000Y020520D01*
Y020560D02*
X031960Y020640D01*
X032040D01*
X032000Y020560D01*
X031300Y020520D02*
X031220Y020680D01*
X031380D01*
X031300Y020520D01*
Y020560D02*
X031260Y020640D01*
X031340D01*
X031300Y020560D01*
X033550Y018820D02*
X033470Y018980D01*
X033630D01*
X033550Y018820D01*
Y018860D02*
X033510Y018940D01*
X033590D01*
X033550Y018860D01*
X027700Y020520D02*
X027620Y020680D01*
X027780D01*
X027700Y020520D01*
Y020560D02*
X027660Y020640D01*
X027740D01*
X027700Y020560D01*
X023400Y024770D02*
X023320Y024930D01*
X023480D01*
X023400Y024770D01*
Y024810D02*
X023360Y024890D01*
X023440D01*
X023400Y024810D01*
X034100Y018270D02*
X034020Y018430D01*
X034180D01*
X034100Y018270D01*
Y018310D02*
X034060Y018390D01*
X034140D01*
X034100Y018310D01*
X032500Y013420D02*
X032420Y013580D01*
X032580D01*
X032500Y013420D01*
Y013460D02*
X032460Y013540D01*
X032540D01*
X032500Y013460D01*
Y016570D02*
X032420Y016730D01*
X032580D01*
X032500Y016570D01*
Y016610D02*
X032460Y016690D01*
X032540D01*
X032500Y016610D01*
X041450Y017720D02*
X041370Y017880D01*
X041530D01*
X041450Y017720D01*
Y017760D02*
X041410Y017840D01*
X041490D01*
X041450Y017760D01*
X030600Y014220D02*
X030520Y014380D01*
X030680D01*
X030600Y014220D01*
Y014260D02*
X030560Y014340D01*
X030640D01*
X030600Y014260D01*
X021700Y013270D02*
X021620Y013430D01*
X021780D01*
X021700Y013270D01*
Y013310D02*
X021660Y013390D01*
X021740D01*
X021700Y013310D01*
X023500Y017470D02*
X023420Y017630D01*
X023580D01*
X023500Y017470D01*
Y017510D02*
X023460Y017590D01*
X023540D01*
X023500Y017510D01*
X019950Y012950D02*
X019870Y013110D01*
X020030D01*
X019950Y012950D01*
Y012990D02*
X019910Y013070D01*
X019990D01*
X019950Y012990D01*
X015700Y033970D02*
X015620Y034130D01*
X015780D01*
X015700Y033970D01*
Y034010D02*
X015660Y034090D01*
X015740D01*
X015700Y034010D01*
X017150Y031570D02*
X017070Y031730D01*
X017230D01*
X017150Y031570D01*
Y031610D02*
X017110Y031690D01*
X017190D01*
X017150Y031610D01*
X016700Y033570D02*
X016620Y033730D01*
X016780D01*
X016700Y033570D01*
Y033610D02*
X016660Y033690D01*
X016740D01*
X016700Y033610D01*
X013900Y033970D02*
X013820Y034130D01*
X013980D01*
X013900Y033970D01*
Y034010D02*
X013860Y034090D01*
X013940D01*
X013900Y034010D01*
X015030Y036270D02*
X014950Y036430D01*
X015110D01*
X015030Y036270D01*
Y036310D02*
X014990Y036390D01*
X015070D01*
X015030Y036310D01*
X014650Y027170D02*
X014570Y027330D01*
X014730D01*
X014650Y027170D01*
Y027210D02*
X014610Y027290D01*
X014690D01*
X014650Y027210D01*
X034900Y027170D02*
X034820Y027330D01*
X034980D01*
X034900Y027170D01*
Y027210D02*
X034860Y027290D01*
X034940D01*
X034900Y027210D01*
X023700Y026670D02*
X023620Y026830D01*
X023780D01*
X023700Y026670D01*
Y026710D02*
X023660Y026790D01*
X023740D01*
X023700Y026710D01*
X019000Y014370D02*
X018920Y014530D01*
X019080D01*
X019000Y014370D01*
Y014410D02*
X018960Y014490D01*
X019040D01*
X019000Y014410D01*
X037225Y016833D02*
X037145Y016993D01*
X037305D01*
X037225Y016833D01*
Y016873D02*
X037185Y016953D01*
X037265D01*
X037225Y016873D01*
X038850Y018470D02*
X038770Y018630D01*
X038930D01*
X038850Y018470D01*
Y018510D02*
X038810Y018590D01*
X038890D01*
X038850Y018510D01*
X029250Y021120D02*
X029170Y021280D01*
X029330D01*
X029250Y021120D01*
Y021160D02*
X029210Y021240D01*
X029290D01*
X029250Y021160D01*
X024150Y028690D02*
X024070Y028850D01*
X024230D01*
X024150Y028690D01*
Y028730D02*
X024110Y028810D01*
X024190D01*
X024150Y028730D01*
X022700Y030620D02*
X022620Y030780D01*
X022780D01*
X022700Y030620D01*
Y030660D02*
X022660Y030740D01*
X022740D01*
X022700Y030660D01*
X024350Y032970D02*
X024270Y033130D01*
X024430D01*
X024350Y032970D01*
Y033010D02*
X024310Y033090D01*
X024390D01*
X024350Y033010D01*
X019581Y013789D02*
X019501Y013949D01*
X019661D01*
X019581Y013789D01*
Y013829D02*
X019541Y013909D01*
X019621D01*
X019581Y013829D01*
X018350Y032520D02*
X018270Y032680D01*
X018430D01*
X018350Y032520D01*
Y032560D02*
X018310Y032640D01*
X018390D01*
X018350Y032560D01*
X036055Y038220D02*
X035975Y038380D01*
X036135D01*
X036055Y038220D01*
Y038260D02*
X036015Y038340D01*
X036095D01*
X036055Y038260D01*
X036510Y043020D02*
X036430Y043180D01*
X036590D01*
X036510Y043020D01*
Y043060D02*
X036470Y043140D01*
X036550D01*
X036510Y043060D01*
X034090Y019320D02*
X034010Y019480D01*
X034170D01*
X034090Y019320D01*
Y019360D02*
X034050Y019440D01*
X034130D01*
X034090Y019360D01*
X028900Y012930D02*
X028820Y013090D01*
X028980D01*
X028900Y012930D01*
Y012970D02*
X028860Y013050D01*
X028940D01*
X028900Y012970D01*
X031034Y017540D02*
X030954Y017700D01*
X031114D01*
X031034Y017540D01*
Y017580D02*
X030994Y017660D01*
X031074D01*
X031034Y017580D01*
X037640Y039760D02*
X037560Y039920D01*
X037720D01*
X037640Y039760D01*
Y039800D02*
X037600Y039880D01*
X037680D01*
X037640Y039800D01*
D115*
X010793Y029672D02*
G03*
X010793Y029672I-000080J000000D01*
G01*
Y030672D02*
G03*
X010793Y030672I-000080J000000D01*
G01*
Y031672D02*
G03*
X010793Y031672I-000080J000000D01*
G01*
Y032672D02*
G03*
X010793Y032672I-000080J000000D01*
G01*
Y033672D02*
G03*
X010793Y033672I-000080J000000D01*
G01*
Y034672D02*
G03*
X010793Y034672I-000080J000000D01*
G01*
Y035672D02*
G03*
X010793Y035672I-000080J000000D01*
G01*
Y022672D02*
G03*
X010793Y022672I-000080J000000D01*
G01*
Y023672D02*
G03*
X010793Y023672I-000080J000000D01*
G01*
Y024672D02*
G03*
X010793Y024672I-000080J000000D01*
G01*
Y025672D02*
G03*
X010793Y025672I-000080J000000D01*
G01*
Y026672D02*
G03*
X010793Y026672I-000080J000000D01*
G01*
Y027672D02*
G03*
X010793Y027672I-000080J000000D01*
G01*
Y028672D02*
G03*
X010793Y028672I-000080J000000D01*
G01*
X039604Y027672D02*
G03*
X039604Y027672I-000080J000000D01*
G01*
Y028672D02*
G03*
X039604Y028672I-000080J000000D01*
G01*
Y029672D02*
G03*
X039604Y029672I-000080J000000D01*
G01*
Y030672D02*
G03*
X039604Y030672I-000080J000000D01*
G01*
X026180Y013400D02*
G03*
X026180Y013400I-000080J000000D01*
G01*
X028385D02*
G03*
X028385Y013400I-000080J000000D01*
G01*
D116*
X026140D02*
G03*
X026140Y013400I-000040J000000D01*
G01*
X028345D02*
G03*
X028345Y013400I-000040J000000D01*
G01*
M02*
