G04*
G04 #@! TF.GenerationSoftware,Altium Limited,Altium Designer,21.5.1 (32)*
G04*
G04 Layer_Physical_Order=2*
G04 Layer_Color=16711680*
%FSAX24Y24*%
%MOIN*%
G70*
G04*
G04 #@! TF.SameCoordinates,E50B5674-5FFA-4352-8543-23BF37AEB5C9*
G04*
G04*
G04 #@! TF.FilePolarity,Positive*
G04*
G01*
G75*
%ADD11C,0.0100*%
%ADD37R,0.0236X0.0571*%
%ADD39R,0.0492X0.0512*%
%ADD47R,0.0492X0.0551*%
%ADD48R,0.0551X0.0492*%
%ADD73C,0.0200*%
%ADD74C,0.0250*%
%ADD75C,0.0500*%
%ADD76C,0.0300*%
%ADD78C,0.0120*%
%ADD79C,0.0400*%
%ADD80C,0.1575*%
%ADD81C,0.0709*%
%ADD82C,0.0591*%
%ADD83C,0.0787*%
%ADD84R,0.0591X0.0591*%
%ADD85C,0.0866*%
%ADD86C,0.0551*%
%ADD87O,0.0700X0.0950*%
%ADD88O,0.0827X0.0433*%
%ADD89O,0.0630X0.0433*%
%ADD90C,0.1969*%
%ADD91C,0.0360*%
%ADD92R,0.0866X0.0669*%
%ADD93R,0.0787X0.0787*%
%ADD94R,0.0787X0.0787*%
%ADD95R,0.1260X0.0827*%
%ADD96R,0.0354X0.0827*%
%ADD97R,0.0591X0.0984*%
%ADD98R,0.0236X0.0453*%
%ADD99O,0.0945X0.0315*%
%ADD100R,0.0945X0.0315*%
%ADD101R,0.0512X0.0492*%
%ADD102C,0.0150*%
G36*
X030150Y043300D02*
X029450Y044000D01*
X030150Y044700D01*
Y043300D01*
D02*
G37*
G36*
X011300Y042000D02*
Y041650D01*
X010800Y042000D01*
X011300Y042300D01*
Y042000D01*
D02*
G37*
G36*
X015700Y039800D02*
Y039550D01*
X014300D01*
Y040000D01*
X014100Y040200D01*
Y040250D01*
X014600Y040750D01*
X014750D01*
X015700Y039800D01*
D02*
G37*
G36*
X012200Y038950D02*
X012100Y038700D01*
X011700Y038950D01*
X012150Y039250D01*
X012200Y038950D01*
D02*
G37*
G36*
X024900Y038050D02*
Y037550D01*
X024400Y038050D01*
X024900Y038550D01*
Y038050D01*
D02*
G37*
G36*
X015650Y037150D02*
X015300Y037650D01*
X016050D01*
X015650Y037150D01*
D02*
G37*
G36*
X021900Y037100D02*
X021550Y037600D01*
X022300D01*
X021900Y037100D01*
D02*
G37*
G36*
X030800Y033950D02*
X029400D01*
X030100Y034650D01*
X030800Y033950D01*
D02*
G37*
G36*
X027700Y024600D02*
X027000Y025300D01*
X028400D01*
X027700Y024600D01*
D02*
G37*
G36*
X037950Y021000D02*
X038000D01*
X038250Y020750D01*
X038556Y020444D01*
X038792Y020290D01*
Y020000D01*
X038717Y019953D01*
X038758Y019742D01*
X038800Y019700D01*
Y019650D01*
X038883Y019567D01*
X038950Y019550D01*
X039000Y019500D01*
X039200Y019550D01*
X039300Y019450D01*
X039350Y019350D01*
X039406Y018106D01*
X039350Y018050D01*
X039300Y017950D01*
X039100Y017900D01*
X036845Y017875D01*
X036606Y018163D01*
X036354Y018608D01*
X037254Y019097D01*
X038037Y019635D01*
X038150Y019892D01*
X038106Y020100D01*
X038050D01*
X037850Y020150D01*
X037538Y020087D01*
X037500Y020050D01*
X037400Y020000D01*
X037300Y019950D01*
X037200Y019900D01*
X037100Y019950D01*
X037046Y020054D01*
X036832Y020949D01*
X036178Y021530D01*
X036175Y021525D01*
X035529D01*
X035216Y021553D01*
X034947Y021777D01*
X034950Y021800D01*
X035000Y022450D01*
X036450Y022550D01*
Y022550D01*
Y022550D01*
X037950Y021000D01*
D02*
G37*
G36*
X033850Y022350D02*
Y021950D01*
X034400Y021400D01*
X036200Y021350D01*
X036750Y020850D01*
Y020550D01*
X036400D01*
Y020750D01*
X036250Y020900D01*
X034300D01*
X034200Y020750D01*
X034100D01*
Y020550D01*
X034050Y020500D01*
X034150Y020400D01*
Y019700D01*
X033950Y019500D01*
X033450D01*
X033407Y020450D01*
X033400D01*
Y020900D01*
X030986D01*
X030217Y019433D01*
X030575Y019075D01*
X031050Y019000D01*
X029892Y018900D01*
X029600Y019050D01*
X029550Y019100D01*
X029650Y021100D01*
X030900Y022350D01*
Y022350D01*
X031350Y022800D01*
X033400D01*
X033850Y022350D01*
D02*
G37*
G36*
X042750Y018550D02*
Y018050D01*
X042600Y017900D01*
Y017450D01*
X042100D01*
Y017950D01*
X041900Y018150D01*
Y018650D01*
X042650D01*
X042750Y018550D01*
D02*
G37*
G36*
X031000Y017100D02*
X030949Y016894D01*
X030574Y017094D01*
X030600Y017250D01*
X030950Y017450D01*
X031000Y017100D01*
D02*
G37*
G36*
X021150Y017150D02*
X020450Y016450D01*
Y017850D01*
X021150Y017150D01*
D02*
G37*
G36*
X042850Y015550D02*
X041850D01*
X042350Y016050D01*
X042850Y015550D01*
D02*
G37*
G36*
X043600Y015150D02*
X042900Y014800D01*
Y015550D01*
X043600Y015150D01*
D02*
G37*
G36*
X040350Y014650D02*
X040250Y014350D01*
X040150Y014100D01*
X040100D01*
X039900Y013900D01*
X039350D01*
X039300Y013950D01*
X039150D01*
X039000Y014100D01*
X038950D01*
Y014150D01*
X038800Y014300D01*
Y014450D01*
Y014550D01*
X038733Y014633D01*
X038700Y014650D01*
X038550Y014800D01*
X038500Y014900D01*
X038450Y015100D01*
Y015150D01*
Y015300D01*
Y015400D01*
X038500Y015600D01*
X038650Y015750D01*
Y015800D01*
X038950Y015900D01*
X040200Y015950D01*
X040350Y014650D01*
D02*
G37*
G36*
X038100Y015900D02*
X038200Y015800D01*
Y014992D01*
X038650Y014542D01*
Y013800D01*
X037100D01*
X036550Y014350D01*
Y015350D01*
X037100Y015900D01*
X038100Y015900D01*
D02*
G37*
%LPC*%
G36*
X036575Y022027D02*
Y021825D01*
X036638Y021762D01*
X036575Y022027D01*
D02*
G37*
G36*
X038365Y020045D02*
X038417Y019993D01*
X038426Y020009D01*
X038435Y020022D01*
X038365Y020045D01*
D02*
G37*
%LPD*%
D11*
X044350Y024250D02*
X044793Y023807D01*
Y019343D02*
Y023807D01*
X042450Y024250D02*
X044350D01*
X012412Y038974D02*
X012436Y038950D01*
X011210Y038610D02*
X011406Y038806D01*
X011200Y038610D02*
X011210D01*
X032338Y019538D02*
X032477Y019400D01*
X030594Y019538D02*
X032338D01*
X032477Y019400D02*
X032557D01*
X012794Y039800D02*
X013790D01*
X012674Y039920D02*
X012794Y039800D01*
X013790D02*
X013800D01*
X012674Y039920D02*
Y040087D01*
X042251Y015079D02*
X042350Y015178D01*
X032850Y018900D02*
X033550D01*
X032496D02*
X032850D01*
X042060Y019050D02*
X044500D01*
X044793Y019343D01*
X032296Y018700D02*
X032496Y018900D01*
X029150Y018700D02*
X032296D01*
X035750Y020400D02*
X035850Y020300D01*
X036050Y018600D02*
X036250Y018400D01*
Y018143D02*
Y018400D01*
X034850Y020400D02*
X035750D01*
X031274Y020050D02*
X031300Y020076D01*
X031994Y020050D02*
X032144Y019900D01*
X031994Y020050D02*
X032000Y020056D01*
X034600Y014400D02*
Y014400D01*
X034150Y018900D02*
X034850D01*
X032424Y018475D02*
X033725D01*
X034150Y018900D01*
X030300Y014290D02*
X030340Y014250D01*
X020221Y040250D02*
X022957D01*
X019926Y039955D02*
X020221Y040250D01*
X022957D02*
X023862Y039345D01*
X030206Y019353D02*
X030206Y019353D01*
X023862Y038872D02*
Y039345D01*
X023750Y038760D02*
X023862Y038872D01*
X019926Y039787D02*
Y039955D01*
X031706Y017137D02*
X031726Y017157D01*
X032100Y017800D02*
X032300Y017600D01*
X032100Y017800D02*
Y018151D01*
X032300Y017600D02*
X033890D01*
X011406Y038806D02*
Y038816D01*
X020674Y039787D02*
X020711Y039750D01*
X018660Y039800D02*
X018807Y039653D01*
X018675Y038910D02*
X018685Y038900D01*
X017812Y039672D02*
X017940Y039800D01*
X017800Y038910D02*
X017812Y038922D01*
X020300Y040713D02*
Y040782D01*
X020232Y040850D02*
X020300Y040782D01*
X036860Y040971D02*
X036867Y040978D01*
X035740Y040971D02*
X035799Y041030D01*
X024984Y045053D02*
Y045100D01*
X032100Y018151D02*
X032424Y018475D01*
X034090Y020690D02*
X034100Y020700D01*
X034090Y020710D02*
X034100Y020700D01*
X041444Y017422D02*
X041513Y017354D01*
X042530Y020300D02*
X042550Y020280D01*
X015660Y037950D02*
X015664D01*
X042350Y017422D02*
Y017513D01*
X010800Y040850D02*
X010963Y041013D01*
X037826Y014596D02*
X038022Y014400D01*
X022907Y038760D02*
Y038900D01*
X035876Y017150D02*
Y017257D01*
X032557Y019400D02*
X032850D01*
X032270Y019112D02*
X032557Y019400D01*
X031994Y019112D02*
X032270D01*
X041444Y017422D02*
X041470Y017448D01*
D37*
X012300Y041013D02*
D03*
X011926Y040087D02*
D03*
X012674D02*
D03*
X020674Y039787D02*
D03*
X019926D02*
D03*
X020300Y040713D02*
D03*
D39*
X021540Y039750D02*
D03*
X022260D02*
D03*
X014510Y039800D02*
D03*
X013790D02*
D03*
X010440Y039550D02*
D03*
X011160D02*
D03*
X031274Y019112D02*
D03*
X031994D02*
D03*
Y020050D02*
D03*
X031274D02*
D03*
X034610Y017600D02*
D03*
X033890D02*
D03*
X033940Y016800D02*
D03*
X034660D02*
D03*
X036560Y020300D02*
D03*
X035840D02*
D03*
X044260Y018400D02*
D03*
X043540D02*
D03*
X043090Y023250D02*
D03*
X043810D02*
D03*
X034240Y040550D02*
D03*
X034960D02*
D03*
X035740Y040600D02*
D03*
X036460D02*
D03*
X037640Y040450D02*
D03*
X038360D02*
D03*
X039390Y040750D02*
D03*
X040110D02*
D03*
X017940Y039800D02*
D03*
X018660D02*
D03*
D47*
X036480Y019300D02*
D03*
X035820D02*
D03*
X043780Y022550D02*
D03*
X043120D02*
D03*
X041470Y018400D02*
D03*
X042130D02*
D03*
X039180Y019950D02*
D03*
X038520D02*
D03*
D48*
X041650Y019640D02*
D03*
Y020300D02*
D03*
X042550Y019620D02*
D03*
Y020280D02*
D03*
X043400Y019620D02*
D03*
Y020280D02*
D03*
X044250Y019620D02*
D03*
Y020280D02*
D03*
D73*
X029490Y015080D02*
X029910Y015500D01*
X036150D01*
X036850Y016200D01*
X031400Y015800D02*
X036000D01*
X036700Y016500D01*
X031034Y016166D02*
X031400Y015800D01*
X032050Y016200D02*
X034200D01*
X034514Y016654D02*
X034660Y016800D01*
X034514Y016514D02*
Y016654D01*
X022000Y015080D02*
X029490D01*
X021700Y013350D02*
X023050Y014700D01*
X029100D01*
X029510Y014290D01*
X030300D01*
X036783Y041062D02*
X036867Y040978D01*
X035740Y040971D02*
X035830Y041062D01*
X035740Y039553D02*
Y040971D01*
X035830Y041062D02*
X036783D01*
X036906Y035593D02*
Y041589D01*
X034955Y039750D02*
Y040545D01*
X039400Y040750D02*
Y042200D01*
X039800Y042600D01*
X043500D01*
X043900Y040350D02*
Y042200D01*
Y032050D02*
Y040350D01*
X042350Y025300D02*
X042450Y025200D01*
X041150Y021300D02*
X042450D01*
X042247Y032956D02*
X042253Y032949D01*
X034955Y040545D02*
X034960Y040550D01*
X036055Y038300D02*
Y039152D01*
X035900Y039307D02*
Y039393D01*
Y039307D02*
X036055Y039152D01*
X035740Y039553D02*
X035900Y039393D01*
X011564Y038974D02*
X012412D01*
X011406Y038816D02*
X011564Y038974D01*
X035000Y022750D02*
X036650D01*
X034400Y022150D02*
X035000Y022750D01*
X020549Y039250D02*
X020666Y039367D01*
X019400Y039250D02*
X020549D01*
X020666Y039724D02*
X020692Y039750D01*
X020666Y039367D02*
Y039724D01*
X018997Y039653D02*
X019400Y039250D01*
X010713Y025672D02*
X011450Y024935D01*
Y020550D02*
Y024935D01*
X031034Y016166D02*
Y017150D01*
Y017150D02*
Y017620D01*
X020450Y017150D02*
X020450Y017150D01*
X031034D01*
X031034Y017150D01*
X031708Y017139D02*
Y017155D01*
X031416D02*
X031708D01*
X031414Y017154D02*
X031416Y017155D01*
X015660Y035640D02*
X018250Y033050D01*
X024350D01*
X015660Y035640D02*
Y037950D01*
X011085Y030300D02*
X038896D01*
X039524Y029672D01*
X010713Y030672D02*
X011085Y030300D01*
X043500Y042600D02*
X043900Y042200D01*
X024056Y044511D02*
Y045044D01*
X024000Y045100D02*
X024056Y045044D01*
Y044511D02*
X025667Y042900D01*
X029150D01*
X042253Y032453D02*
Y032949D01*
X042250Y032450D02*
X042253Y032453D01*
X034100Y034550D02*
X035863D01*
X036906Y035593D01*
X026037Y044000D02*
X030119D01*
Y045100D01*
X023250Y034050D02*
X030119D01*
X041882D01*
X030119Y034118D02*
Y044000D01*
X030100Y034100D02*
X030119Y034118D01*
X042101Y033822D02*
Y033832D01*
X042247Y033676D02*
X042257D01*
X042101Y033822D02*
X042247Y033676D01*
X041882Y034050D02*
X042101Y033832D01*
X021900Y033450D02*
Y037886D01*
X021914Y037900D01*
X040850Y018650D02*
X041250Y019050D01*
X042060D01*
X023400Y020400D02*
Y024850D01*
X025800Y018000D02*
X031510D01*
X023400Y020400D02*
X025800Y018000D01*
X021800Y019250D02*
X023500Y017550D01*
X021800Y019250D02*
Y024800D01*
X009950Y018400D02*
Y022909D01*
Y018400D02*
X014481Y013869D01*
X009950Y022909D02*
X010713Y023672D01*
X014481Y013869D02*
X019581D01*
X011450Y020550D02*
X017550Y014450D01*
X019000D01*
X024900Y012950D02*
X024930Y012980D01*
X028870D01*
X028900Y013010D01*
X031645Y012795D02*
X031650Y012800D01*
X031265Y012795D02*
X031645D01*
X030095D02*
X030100Y012790D01*
X029705Y012795D02*
X030095D01*
X029700Y012800D02*
X029705Y012795D01*
X028900Y013010D02*
X029638Y012272D01*
X039772D01*
X041150Y013650D01*
X014250Y025300D02*
X027700D01*
Y020600D02*
Y025300D01*
X042350D01*
X040152Y030648D02*
X040750Y030050D01*
X039507Y030648D02*
X040152D01*
X040750Y027350D02*
Y030050D01*
X023857Y026794D02*
X040194D01*
X040750Y027350D01*
X040350Y027500D02*
Y028300D01*
X035906Y027094D02*
X039944D01*
X040350Y027500D01*
X040014Y028636D02*
X040350Y028300D01*
X039507Y028648D02*
X039519Y028636D01*
X040014D01*
X011298Y028250D02*
X034750D01*
X035906Y027094D01*
X015100Y021450D02*
X019500D01*
X031350Y023300D02*
X042800D01*
X029250Y021200D02*
X031350Y023300D01*
X040850Y017050D02*
Y018650D01*
X036850Y016200D02*
X040000D01*
X040850Y017050D01*
X036700Y016500D02*
X039800D01*
X019950Y013030D02*
X022000Y015080D01*
X032000Y020056D02*
Y020600D01*
X034090Y020360D02*
X034100Y020350D01*
X034050Y020400D02*
X034090Y020360D01*
X032850Y020400D02*
X034050D01*
X031510Y018000D02*
X032044Y017466D01*
X034200Y016200D02*
X034514Y016514D01*
X032044Y016206D02*
Y017466D01*
Y016206D02*
X032050Y016200D01*
X030340Y014250D02*
X030385Y014295D01*
X030595D01*
X030600Y014300D01*
X020450Y017150D02*
Y020500D01*
X019500Y021450D02*
X020450Y020500D01*
Y014200D02*
Y017150D01*
X019600Y013350D02*
X020450Y014200D01*
X014650Y027250D02*
X034900D01*
X014150Y013350D02*
X019600D01*
X010713Y031672D02*
X010724Y031661D01*
X017139D02*
X017150Y031650D01*
X010724Y031661D02*
X017139D01*
X010763Y033581D02*
X010842Y033661D01*
X016689D01*
X016700Y033650D01*
X013900Y034050D02*
X015700D01*
X023731Y026781D02*
X023844D01*
X023700Y026750D02*
X023731Y026781D01*
X023844D02*
X023857Y026794D01*
X012471Y041198D02*
X013254Y041980D01*
X012318Y041198D02*
X012471D01*
X012300Y041180D02*
X012318Y041198D01*
X012300Y041027D02*
Y041180D01*
X032144Y019900D02*
X032850D01*
X023350Y031350D02*
X043200D01*
X043900Y032050D01*
X022700Y030700D02*
X023350Y031350D01*
X010696Y027648D02*
X011298Y028250D01*
X010793Y028745D02*
X011064D01*
X011067Y028748D02*
X024128D01*
X010696Y028648D02*
X010793Y028745D01*
X011064D02*
X011067Y028748D01*
X039800Y016500D02*
X040400Y017100D01*
Y020550D01*
X041150Y021300D01*
X024128Y028748D02*
X024150Y028770D01*
X018307Y032600D02*
X018344D01*
X018259Y032648D02*
X018307Y032600D01*
X010696Y032648D02*
X018259D01*
X020318Y040800D02*
Y040990D01*
X020751Y041423D01*
X020300Y040782D02*
X020318Y040800D01*
X020751Y041423D02*
Y041951D01*
X020800Y042000D01*
X011908Y040015D02*
X011926Y040033D01*
X011625Y040015D02*
X011908D01*
X011926Y040033D02*
Y040087D01*
X011316Y039706D02*
X011625Y040015D01*
X011306Y039706D02*
X011316D01*
X011160Y039560D02*
X011306Y039706D01*
X011160Y039550D02*
Y039560D01*
X024984Y045053D02*
X026037Y044000D01*
X036650Y022750D02*
X039300Y020100D01*
X015764Y038850D02*
X016560D01*
X015664Y038950D02*
X015764Y038850D01*
X020711Y039750D02*
X021540D01*
X018807Y039653D02*
X018997D01*
X017800Y038910D02*
X018675D01*
X017812Y038922D02*
Y039672D01*
X018800Y040850D02*
X020232D01*
X036867Y040978D02*
X036906Y040939D01*
X021914Y038900D02*
X022907D01*
X010963Y041013D02*
X012300D01*
X034660Y016800D02*
X035526D01*
X035876Y017150D01*
X037640Y039840D02*
Y040450D01*
X010400Y038610D02*
X011200Y038610D01*
D74*
X043779Y020280D02*
X043799D01*
X031103Y044447D02*
X031450Y044100D01*
X031450D01*
X031103Y044447D02*
Y045100D01*
X031428Y044125D02*
X034240Y041313D01*
X038360Y040450D02*
X038395Y040415D01*
X038835D02*
X043300Y035950D01*
Y032350D02*
Y035950D01*
X038395Y040415D02*
X038835D01*
X038360Y040450D02*
Y042341D01*
X043799Y020280D02*
X044250D01*
X041470Y017448D02*
Y018400D01*
X017939Y040812D02*
X019146Y042020D01*
X009800Y040850D02*
Y041602D01*
X017800Y040850D02*
Y040942D01*
X014510Y039800D02*
X016650D01*
X014650Y039688D02*
Y042050D01*
X014510Y039800D02*
Y039825D01*
X014100Y042600D02*
X014650Y042050D01*
X036550Y020300D02*
Y020850D01*
X041650Y019640D02*
X042550D01*
X036520Y019300D02*
Y020260D01*
X023750Y038053D02*
X024900D01*
X043799Y021650D02*
X043850D01*
X042958D02*
X043799D01*
X042450Y022158D02*
X042958Y021650D01*
X042450Y022158D02*
Y022250D01*
X043400Y020280D02*
X043779D01*
X041500Y022250D02*
X042450D01*
X039874Y020624D02*
X041500Y022250D01*
X040900Y019650D02*
X040905Y019645D01*
X041645D02*
X041650Y019640D01*
X040905Y019645D02*
X041645D01*
X032670Y016790D02*
X033940D01*
X031250Y013510D02*
X032500D01*
X029979Y013571D02*
X030150Y013400D01*
X009800Y041602D02*
X010198Y042000D01*
X013079Y037821D02*
X013100Y037800D01*
X012565Y037821D02*
X013079D01*
X012436Y037950D02*
X012565Y037821D01*
X017579Y038311D02*
X017679D01*
X016650Y039800D02*
X017250Y039200D01*
Y038640D02*
Y039200D01*
X017679Y038311D02*
X017800Y038190D01*
X017250Y038640D02*
X017579Y038311D01*
X016700Y036480D02*
Y038150D01*
X016600Y036380D02*
X016700Y036480D01*
X016600Y036350D02*
Y036380D01*
X042130Y018370D02*
X042350Y018150D01*
Y017513D02*
Y018150D01*
X042130Y018370D02*
Y018400D01*
X030447Y019112D02*
X031274D01*
X031250Y022150D02*
X033400D01*
X030100Y021000D02*
X031250Y022150D01*
X014100Y042600D02*
Y045350D01*
X014749Y045999D02*
X031142D01*
X014100Y045350D02*
X014749Y045999D01*
X023003Y045087D02*
X023016Y045100D01*
X031142Y045999D02*
X034041Y043100D01*
X023016Y045097D02*
Y045100D01*
X019638Y042288D02*
X022437Y045087D01*
X023003D01*
X034041Y043100D02*
X036510D01*
X019415Y042288D02*
X019638D01*
X019146Y042020D02*
X019415Y042288D01*
X036510Y043100D02*
X037601D01*
X038360Y042341D01*
X042850Y031900D02*
X043300Y032350D01*
X031350Y031900D02*
X042850D01*
X010440Y039550D02*
Y039550D01*
X009729Y039129D02*
X010029Y039429D01*
X010319D02*
X010440Y039550D01*
X010029Y039429D02*
X010319D01*
X009729Y038321D02*
Y039129D01*
X015030Y036350D02*
X015050D01*
X013780Y035100D02*
X015030Y036350D01*
X011285Y035100D02*
X013780D01*
X010713Y035672D02*
X011285Y035100D01*
X041629Y015079D02*
X042251D01*
X040105Y040755D02*
X040110Y040750D01*
X040105Y040755D02*
Y041495D01*
X040100Y041500D02*
X040105Y041495D01*
X010198Y042000D02*
X011600D01*
X024900Y038053D02*
Y039650D01*
Y034850D02*
Y038053D01*
X022260Y039750D02*
X022339Y039671D01*
X022829D01*
X022850Y039650D01*
X022903Y036353D02*
Y038037D01*
X022900Y036350D02*
X022903Y036353D01*
Y038037D02*
X022907Y038040D01*
X018586Y037800D02*
X018686Y037900D01*
X018350Y037800D02*
X018586D01*
X039874Y019950D02*
Y020624D01*
Y018820D02*
Y019950D01*
X039180D02*
X039874D01*
X036520Y019300D02*
X037101D01*
X037630Y019829D01*
X037779D01*
X037800Y019850D01*
X036480Y019300D02*
X036520D01*
Y020260D02*
X036560Y020300D01*
X034090Y020710D02*
Y021460D01*
X030100Y013510D02*
X031250D01*
X032500Y013500D02*
X040050D01*
X041629Y015079D01*
X029629Y013571D02*
X029979D01*
X028950Y014250D02*
X029629Y013571D01*
X027550Y014250D02*
X028950D01*
X013750Y020179D02*
X015030Y018899D01*
X042130Y018400D02*
X042550D01*
X023450Y014250D02*
X027520D01*
X034090Y020360D02*
Y020690D01*
Y019900D02*
Y020360D01*
X033400Y022150D02*
X034072Y021478D01*
X034489Y017721D02*
Y017961D01*
Y017721D02*
X034610Y017600D01*
X034100Y018350D02*
X034489Y017961D01*
X032530Y016650D02*
X032670Y016790D01*
X032500Y016650D02*
X032530D01*
X032481Y016669D02*
Y017150D01*
Y016669D02*
X032500Y016650D01*
X032474Y017157D02*
X032481Y017150D01*
X036770Y016913D02*
X037217D01*
X036624Y017059D02*
Y017257D01*
Y017059D02*
X036770Y016913D01*
X030890Y015010D02*
X031381Y014519D01*
Y013531D02*
Y014519D01*
X030300Y015010D02*
X030890D01*
X010050Y029009D02*
X010713Y029672D01*
X010050Y027335D02*
X013750Y023635D01*
X010050Y027335D02*
Y029009D01*
X013750Y020179D02*
Y023635D01*
X037524Y029672D02*
X039524Y027672D01*
X010713Y029672D02*
X037524D01*
X034700Y037100D02*
X035950D01*
X036460Y037610D02*
Y040600D01*
X035950Y037100D02*
X036460Y037610D01*
X034240Y037560D02*
X034700Y037100D01*
X034240Y037560D02*
Y040419D01*
X034572Y043900D02*
X035372Y044700D01*
X036950D01*
X037750Y043900D01*
X034240Y040550D02*
Y041313D01*
X010279Y038011D02*
X010400Y037890D01*
X010039Y038011D02*
X010279D01*
X009729Y038321D02*
X010039Y038011D01*
X041650Y020300D02*
X042530D01*
X034090Y019400D02*
Y019900D01*
X034850D01*
X037826Y018820D02*
X038520Y019514D01*
Y019950D01*
X036342Y022150D02*
X038520Y019950D01*
X035400Y022150D02*
X036342D01*
X043400Y019620D02*
X044250D01*
X042550D02*
X043400D01*
X042550Y020280D02*
X043400D01*
D75*
X043256Y017422D02*
X044428D01*
X043799Y020280D02*
Y021650D01*
X043779Y020271D02*
Y020280D01*
X043799Y021650D02*
Y022358D01*
X043779Y020271D02*
X043800Y020250D01*
X043784Y022372D02*
X043799Y022358D01*
X043784Y022372D02*
Y022524D01*
X042350Y015178D02*
Y017422D01*
Y015100D02*
Y015178D01*
X042550Y018400D02*
X043540D01*
X043862Y015178D02*
X044430Y015746D01*
X042350Y015178D02*
X043862D01*
X043116Y022554D02*
X043120Y022550D01*
X043116Y022554D02*
Y023184D01*
X043100Y023200D02*
X043116Y023184D01*
X042450Y023250D02*
X043050D01*
X038822Y018578D02*
X038850Y018550D01*
X037826Y018624D02*
X037872Y018578D01*
X038822D01*
X037826Y018624D02*
Y018820D01*
X039828Y015319D02*
X039871Y015362D01*
X039400Y014448D02*
X039828Y014876D01*
X039400Y014400D02*
Y014448D01*
X039828Y014876D02*
Y015319D01*
X037826Y014596D02*
Y015380D01*
D76*
X034090Y019400D02*
X034850D01*
D78*
X011200Y037890D02*
X011210D01*
X011640Y037450D02*
X013450D01*
X011396Y037694D02*
X011640Y037450D01*
X013450D02*
X013800Y037800D01*
Y039800D01*
X011210Y037890D02*
X011396Y037704D01*
Y037694D02*
Y037704D01*
D79*
X031300Y020076D02*
Y020600D01*
D80*
X012650Y021943D02*
D03*
Y036400D02*
D03*
X039130Y021943D02*
D03*
Y036400D02*
D03*
D81*
X010713Y029672D02*
D03*
Y030672D02*
D03*
Y031672D02*
D03*
Y032672D02*
D03*
Y033672D02*
D03*
Y034672D02*
D03*
Y035672D02*
D03*
Y022672D02*
D03*
Y023672D02*
D03*
Y024672D02*
D03*
Y025672D02*
D03*
Y026672D02*
D03*
Y027672D02*
D03*
Y028672D02*
D03*
X039524Y027672D02*
D03*
Y028672D02*
D03*
Y029672D02*
D03*
Y030672D02*
D03*
D82*
X010950Y040850D02*
D03*
X009950D02*
D03*
X042450Y021250D02*
D03*
Y022250D02*
D03*
Y023250D02*
D03*
Y024250D02*
D03*
Y025250D02*
D03*
X019000Y040850D02*
D03*
X018000D02*
D03*
D83*
X016950D02*
D03*
X013950D02*
D03*
X025000D02*
D03*
X022000D02*
D03*
D84*
X042450Y026250D02*
D03*
D85*
X039128Y043900D02*
D03*
X037750D02*
D03*
X034600Y014400D02*
D03*
X033222D02*
D03*
X019628Y043900D02*
D03*
X018250D02*
D03*
X035950D02*
D03*
X034572D02*
D03*
X015040Y043887D02*
D03*
X016418D02*
D03*
X038022Y014400D02*
D03*
X039400D02*
D03*
D86*
X035400Y022150D02*
D03*
X033400D02*
D03*
X034400D02*
D03*
D87*
X029134Y045100D02*
D03*
X030119D02*
D03*
X031103D02*
D03*
X028150D02*
D03*
X024000D02*
D03*
X024984D02*
D03*
X025969D02*
D03*
X023016D02*
D03*
D88*
X027202Y012554D02*
D03*
D89*
X026100Y013400D02*
D03*
X028305D02*
D03*
D90*
X043650Y044900D02*
D03*
X010500Y044750D02*
D03*
X010350Y013400D02*
D03*
X043815D02*
D03*
D91*
X032050Y016200D02*
D03*
X043800Y023300D02*
D03*
X029490Y015080D02*
D03*
X014150Y013350D02*
D03*
X040900Y019650D02*
D03*
X013100Y037800D02*
D03*
X034950Y039750D02*
D03*
X035900Y038950D02*
D03*
X030594Y019538D02*
D03*
X031414Y017154D02*
D03*
X016600Y036350D02*
D03*
X043900Y040350D02*
D03*
X040100Y041650D02*
D03*
X029150Y042900D02*
D03*
X042250Y032450D02*
D03*
X034100Y034550D02*
D03*
X031350Y031900D02*
D03*
X024900Y039650D02*
D03*
X022850D02*
D03*
X021900Y033450D02*
D03*
X024900Y034850D02*
D03*
X023250Y034050D02*
D03*
X022900Y036350D02*
D03*
X018350Y037800D02*
D03*
X029150Y018700D02*
D03*
X037800Y019850D02*
D03*
X035450Y020400D02*
D03*
X036050Y018600D02*
D03*
X024900Y013000D02*
D03*
X031650Y012800D02*
D03*
X029700D02*
D03*
X041150Y013650D02*
D03*
X014250Y025300D02*
D03*
X021800Y024800D02*
D03*
X015100Y021450D02*
D03*
X015030Y018899D02*
D03*
X031250Y022150D02*
D03*
X044500Y017400D02*
D03*
X044250Y018400D02*
D03*
X042550D02*
D03*
X023450Y014250D02*
D03*
X027550D02*
D03*
X032000Y020600D02*
D03*
X031300D02*
D03*
X033550Y018900D02*
D03*
X027700Y020600D02*
D03*
X023400Y024850D02*
D03*
X034100Y018350D02*
D03*
X032500Y013500D02*
D03*
Y016650D02*
D03*
X041450Y017800D02*
D03*
X030600Y014300D02*
D03*
X021700Y013350D02*
D03*
X023500Y017550D02*
D03*
X019950Y013030D02*
D03*
X015700Y034050D02*
D03*
X017150Y031650D02*
D03*
X016700Y033650D02*
D03*
X013900Y034050D02*
D03*
X015030Y036350D02*
D03*
X014650Y027250D02*
D03*
X034900D02*
D03*
X023700Y026750D02*
D03*
X019000Y014450D02*
D03*
X037225Y016913D02*
D03*
X038850Y018550D02*
D03*
X029250Y021200D02*
D03*
X024150Y028770D02*
D03*
X022700Y030700D02*
D03*
X024350Y033050D02*
D03*
X019581Y013869D02*
D03*
X018350Y032600D02*
D03*
X036055Y038300D02*
D03*
X036510Y043100D02*
D03*
X034090Y019400D02*
D03*
X028900Y013010D02*
D03*
X031034Y017620D02*
D03*
X037640Y039840D02*
D03*
D92*
X021914Y038900D02*
D03*
Y037900D02*
D03*
X018686D02*
D03*
Y038900D02*
D03*
X012436Y038950D02*
D03*
Y037950D02*
D03*
X015664D02*
D03*
Y038950D02*
D03*
D93*
X019146Y042020D02*
D03*
X020800Y042000D02*
D03*
X013254Y041980D02*
D03*
X011600Y042000D02*
D03*
D94*
X044430Y015746D02*
D03*
X044450Y017400D02*
D03*
D95*
X042350Y015178D02*
D03*
D96*
X043256Y017422D02*
D03*
X042350D02*
D03*
X041444D02*
D03*
D97*
X037826Y018820D02*
D03*
X039874D02*
D03*
X037826Y015380D02*
D03*
X039874D02*
D03*
D98*
X036624Y017257D02*
D03*
X035876D02*
D03*
X036250Y018143D02*
D03*
X032100Y018043D02*
D03*
X031726Y017157D02*
D03*
X032474D02*
D03*
D99*
X034850Y018900D02*
D03*
X032850D02*
D03*
Y019400D02*
D03*
Y020400D02*
D03*
X034850Y019400D02*
D03*
Y019900D02*
D03*
X032850D02*
D03*
D100*
X034850Y020400D02*
D03*
D101*
X042257Y033676D02*
D03*
Y032956D02*
D03*
X016700Y038910D02*
D03*
Y038190D02*
D03*
X011200Y038610D02*
D03*
Y037890D02*
D03*
X010400Y037890D02*
D03*
Y038610D02*
D03*
X031250Y013510D02*
D03*
Y012790D02*
D03*
X030100Y013510D02*
D03*
Y012790D02*
D03*
X030300Y014290D02*
D03*
Y015010D02*
D03*
X022907Y038040D02*
D03*
Y038760D02*
D03*
X023750Y038040D02*
D03*
Y038760D02*
D03*
X017800Y038190D02*
D03*
Y038910D02*
D03*
D102*
X014500Y039750D02*
Y040000D01*
X010420Y039570D02*
X011400Y040550D01*
X014250Y040250D02*
X014500Y040000D01*
X035950Y017700D02*
X039550D01*
X039874Y018024D01*
Y018820D01*
X035650Y018000D02*
Y019130D01*
Y018000D02*
X035950Y017700D01*
X035650Y019130D02*
X035820Y019300D01*
X013100Y040550D02*
X013400Y040250D01*
X011400Y040550D02*
X013100D01*
X013400Y040250D02*
X014250D01*
M02*
